<?xml version="1.0" encoding="UTF-8"?>
<svg id="Camada_1" xmlns="http://www.w3.org/2000/svg" version="1.1" viewBox="0 0 1000 1000">
  <!-- Generator: Adobe Illustrator 30.2.1, SVG Export Plug-In . SVG Version: 2.1.1 Build 1)  -->
  <defs>
    <style>
      .st0 {
        fill: #2f9e7a;
      }

      .st1 {
        fill: #f3b234;
      }
    </style>
  </defs>
  <path class="st0" d="M442.61,210.2c-15.36,162.38-198.77,272.03-352.87,283.34,2.64-113-5.07-221.1,3.31-332.58C100.66,59.75,193.35-13.42,291,3.21c99.23,16.9,160.9,108.78,151.61,206.99Z"/>
  <path class="st0" d="M414.21,914.19c-47.62,75.03-133.58,100.97-208.91,73.97-79.9-28.64-118.27-104.13-117.4-191.24l2.81-281.89c122.22,5.34,237.37,60.49,308.97,158.5,51.68,70.75,62.34,165.34,14.53,240.66Z"/>
  <g>
    <path class="st1" d="M852.93,313.38c-142.19,200.32-427.64,173.28-436.11,154.33-2.31-5.16-3.37-17.6,2.32-23.53,77.35-80.69,108.81-182.81,123.76-290.96,10.32-74.64,67.81-131.85,130.07-147.66,76.14-19.33,148.83,13.04,191.1,76.76,47.12,71.03,39,160.44-11.13,231.07Z"/>
    <path class="st1" d="M893.72,800.45c9.91,102.92-60.84,185.36-154.44,198.03-93.75,12.69-185.56-55.06-199.77-154.56-15.54-108.91-47.23-211.32-124.62-292.05-5.2-5.43-2.64-18.28-.24-22.19,2.66-4.34,11.1-4.9,20-5.8,146.23-14.79,286.93,30.4,389.71,134.37,37.45,37.89,63.79,84.42,69.36,142.21Z"/>
  </g>
</svg>