<?xml version="1.0" encoding="UTF-8"?>
<svg id="Camada_1" xmlns="http://www.w3.org/2000/svg" xmlns:xlink="http://www.w3.org/1999/xlink" version="1.1" viewBox="0 0 1024 1024">
  <!-- Generator: Adobe Illustrator 30.2.1, SVG Export Plug-In . SVG Version: 2.1.1 Build 1)  -->
  <defs>
    <style>
      .st0 {
        fill: #d49d82;
      }

      .st1 {
        fill: #ea963d;
      }

      .st2 {
        fill: #8f4a3a;
      }

      .st3 {
        fill: #f6bb5f;
      }

      .st4 {
        fill: #8c4537;
      }

      .st5 {
        fill: #659fb1;
      }

      .st6 {
        fill: #9b7663;
      }

      .st7 {
        fill: #d39479;
      }

      .st8 {
        fill: #b85a3c;
      }

      .st9 {
        fill: #010101;
      }

      .st10 {
        fill: #b55a3b;
      }

      .st11 {
        fill: #d9795f;
      }

      .st12 {
        fill: #c99b7e;
      }

      .st13 {
        fill: #e08d74;
      }

      .st14 {
        fill: #df8468;
      }

      .st15 {
        fill: #5ba4d6;
      }

      .st16 {
        fill: #f2ac4d;
      }

      .st17 {
        fill: #66b777;
      }

      .st18 {
        fill: #f6bd5d;
      }

      .st19 {
        fill: #a35037;
      }

      .st20 {
        fill: #f6bd61;
      }

      .st21 {
        fill: #af846c;
      }

      .st22 {
        fill: #f7f6f7;
      }

      .st23 {
        fill: #f5bb5e;
      }

      .st24 {
        fill: #c99882;
      }

      .st25 {
        fill: #ec973d;
      }

      .st26 {
        fill: #5f4c42;
      }

      .st27 {
        fill: #f7bb5d;
      }

      .st28 {
        fill: #ec973e;
      }

      .st29 {
        fill: #030303;
      }

      .st30 {
        fill: #a6806a;
      }

      .st31 {
        fill: url(#Gradiente_sem_nome_3);
      }

      .st32 {
        fill: #a95e45;
      }

      .st33 {
        fill: #ee6c52;
      }

      .st34 {
        fill: #b15739;
      }

      .st35 {
        fill: #a88169;
      }

      .st36 {
        fill: #944b39;
      }

      .st37 {
        fill: #6ab0a1;
      }

      .st38 {
        fill: #67adb7;
      }

      .st39 {
        fill: #df8467;
      }

      .st40 {
        fill: #914a3a;
      }

      .st41 {
        fill: #ea963e;
      }

      .st42 {
        fill: #884339;
      }

      .st43 {
        fill: #ebc2a6;
      }

      .st44 {
        fill: #cf9c83;
      }

      .st45 {
        fill: #d97a5d;
      }

      .st46 {
        fill: #a8816a;
      }

      .st47 {
        fill: #f3cfbb;
      }

      .st48 {
        fill: #df866a;
      }

      .st49 {
        fill: #e2866c;
      }

      .st50 {
        fill: #a57d65;
      }

      .st51 {
        fill: #d1997e;
      }

      .st52 {
        fill: #894738;
      }

      .st53 {
        fill: #8f4b3b;
      }

      .st54 {
        fill: #f4d4c3;
      }

      .st55 {
        fill: #da8366;
      }

      .st56 {
        fill: #d29378;
      }

      .st57 {
        fill: #060606;
      }

      .st58 {
        fill: #60a9cb;
      }

      .st59 {
        fill: #66b475;
      }

      .st60 {
        fill: #904a39;
      }

      .st61 {
        fill: #fbfbfc;
      }

      .st62 {
        fill: #e9bea2;
      }

      .st63 {
        fill: #904a38;
      }

      .st64 {
        fill: #ea963b;
      }

      .st65 {
        fill: #f6bb5b;
      }

      .st66 {
        fill: #df8266;
      }

      .st67 {
        fill: #f6bc60;
      }

      .st68 {
        fill: #aa836c;
      }

      .st69 {
        fill: #ed9840;
      }

      .st70 {
        fill: #f6bc5f;
      }

      .st71 {
        fill: #e9bea1;
      }

      .st72 {
        fill: #eb983d;
      }

      .st73 {
        fill: #d67a5a;
      }

      .st74 {
        fill: #e0886e;
      }

      .st75 {
        fill: #f7bd5c;
      }

      .st76 {
        fill: #bec2c9;
      }

      .st77 {
        fill: #b65d3e;
      }

      .st78 {
        fill: #d2977c;
      }

      .st79 {
        fill: #8f4939;
      }

      .st80 {
        fill: #4b826e;
      }

      .st81 {
        fill: #e1749e;
      }

      .st82 {
        fill: #60a9a3;
      }

      .st83 {
        fill: #ec983e;
      }

      .st84 {
        fill: #cc9d81;
      }

      .st85 {
        fill: #8f4b39;
      }

      .st86 {
        fill: #904939;
      }

      .st87 {
        fill: #884536;
      }

      .st88 {
        fill: #508562;
      }

      .st89 {
        fill: #f7f7f7;
      }

      .st90 {
        fill: #8d4a38;
      }

      .st91 {
        fill: #f4b859;
      }

      .st92 {
        fill: #e77e62;
      }

      .st93 {
        fill: #dd8367;
      }

      .st94 {
        fill: #8f4a39;
      }

      .st95 {
        fill: #b7593c;
      }

      .st96 {
        fill: #69b1b1;
      }

      .st97 {
        fill: #020201;
      }

      .st98 {
        fill: #a88069;
      }

      .st99 {
        fill: #6ab3a3;
      }

      .st100 {
        fill: #d09c84;
      }

      .st101 {
        fill: #b7593b;
      }

      .st102 {
        fill: #a8533b;
      }

      .st103 {
        fill: #c7997d;
      }

      .st104 {
        fill: #e9c0a5;
      }

      .st105 {
        fill: #b6593b;
      }

      .st106 {
        fill: #b45b3e;
      }

      .st107 {
        fill: #934a39;
      }

      .st108 {
        fill: #69b39f;
      }

      .st109 {
        fill: #e9963e;
      }

      .st110 {
        fill: #362f29;
      }

      .st111 {
        fill: #e9bda1;
      }

      .st112 {
        fill: #bd9277;
      }

      .st113 {
        fill: #8a4537;
      }

      .st114 {
        fill: #d17054;
      }

      .st115 {
        fill: #c6cfda;
      }

      .st116 {
        fill: #b8cfe3;
      }

      .st117 {
        fill: #d67b5f;
      }

      .st118 {
        fill: #c7977a;
      }

      .st119 {
        fill: #a8836e;
      }

      .st120 {
        fill: #d09d84;
      }

      .st121 {
        fill: #a17c68;
      }

      .st122 {
        fill: #ca9c7f;
      }

      .st123 {
        fill: #f3cdbe;
      }

      .st124 {
        fill: #579ad3;
      }

      .st125 {
        fill: #5799d2;
      }

      .st126 {
        fill: #8f493a;
      }

      .st127 {
        fill: #fdfdfd;
      }

      .st128 {
        fill: #b0517c;
      }
    </style>
    <linearGradient id="Gradiente_sem_nome_3" data-name="Gradiente sem nome 3" x1="-1774.94" y1="2293.94" x2="-2267.6" y2="2933.11" gradientTransform="translate(2488 -2012)" gradientUnits="userSpaceOnUse">
      <stop offset="0" stop-color="#66b0cf"/>
      <stop offset="1" stop-color="#71bc75"/>
    </linearGradient>
  </defs>
  <g>
    <path class="st9" d="M561,147.92c4.38,1.13,7.51,4.24,9.4,9.35,12.5-12.77,16.73,6.83,17.5,16.56,17.68,1.98,6.65,26.52.48,34.69,19.77,20.92,30.13,54.06,27.8,82.62-.05.66-.43,1.3-.85,1.97s-.97,1.3-1.55,1.9v1.43c2.77,1.01,1.42,6.43-1.62,6.57.55,2.5-.14,6.79-2.16,8.21l1.3,1.89c-3.89,7.88-5.83,11.83-5.83,11.83l-2.41.37c.96,3.23,1.98,6.46,3.09,9.71.75.44,1.47.9,2.1,1.47,6.83,6.18,13.03,39.54,12.7,49.86.2-.37.47-.84.91-.94,4.81-1.15,18.79,2.71,23.37,5.22,6.69,3.67,7.61,4.98,7.96,12.4,6.2,5.21,16.2,20.98,12.88,29.16-1.27,3.13-2.03,4.54-5.45,5.6.18,7.29-.67,28.33-8.93,30.62-1.53.42-3.62.55-3.49-1.14-16.58,32.28-50.01,52.8-83,65.92l35.8,12.68c13.73-8.8,27.33-17.18,40.8-25.13-2.36-14.06,1.84-28.26,14.07-36.35l13.32-30.78c4.04-6.49,11.13-9.17,18.33-6.05,12.7,5.5,8.34,24.35,4.78,34.56l-2.4.81c1,1.24.69,1.9-.92,1.99,4.34.81,8.81.97,13.4.46.25-.73.52-1.29.8-1.31,16.54-.82,35.94-.53,52.59.01.35.01.67.57,1,1.28,7.94.63,15.7.42,23.27-.63-2.05-.7-2.34-1.96-.89-3.78-.64-5.98,2.31-11.75,8.76-12.3,9.5-.82,33.84-2.38,41.44,1.21,4.79,2.27,7.73,8.2,8.41,13.27l.85.56,91.6.04,2.39,1.61c4.52-.14,9,.09,13.43.67,7.06,3.17,13.97,11.02,13.2,20.04l-11.45,133.95-.9,8.16-7.89,88.98c3.63,2.71,7.47,4.28,8.48,9.72.97,5.28-1.62,16.39-8.61,16.47l-52.45.66,24.16,72.26c2.31,6.9-.71,13.86-7.54,16.04-6.18,1.97-13.34-1.05-15.41-8l-25.8-80.44-66.29.04-5.16,63.2c.06,7.2-5.66,12.74-12.68,12.35-6.01-.34-11.38-5.53-10.93-12.46l4.92-62.89-65.93-.29-23.55,65.29c.66.52,1.36,1.3,1.11,2.01-1.71,4.93-5.91,16.88-9.64,19.9-11.27,9.12-24.67-1.11-21.85-15.7.55-2.83,2.04-9.42,5.03-9.36l-1.56-1.56,21.17-57.68c-12.99-.99-26.31-1.44-39.96-1.37-9.62-1.55-15.1-15.08-13.84-23.85.46-3.2,2.29-9.87,6.1-8.56,1.22-2.73,4.09-4.36,8.59-4.89l11.63-135.61c-8.37,11.75-18.38,20.93-30.02,27.53-12.78,3.3-26.03,3.32-39.76.06,3.28,12.52,6.23,25.96,6.65,38.93.32,9.95-.54,21.18-2.14,31.06,1.12,3.11,1.19,6.26.21,9.47l-.05,3.65c20.17,30.4,21.35,66.29,1.59,97.53,14.74,1.2,29.78,4.3,42.61,11.87,2.92,1.72,9.68,8.1,8.1,11.42,3.77.67,3.75,8.65,3.17,12.02-3.3,19.18-35.14,19.72-50.12,18.46-19.33-4.91-39.24-7.36-59.73-7.33-11.26-1.34-26.2-3.63-25.43-17.99.16-2.89,1.48-9.85,4.69-9.86-1.36-2.45-1.05-5.63.94-9.53,5.59-7.67-4.28-34.51-12.1-35.45-21.14-2.54-57.97,16.15-49.28,42.38l-1.34,2.35c2.85-.28,3.99,6.99,4.15,9.64.75,11.98-7.5,15.51-17.85,17.91-7.09.76-14.12,1.79-21.08,3.08-11.74,6.19-24.02,10.24-36.84,12.15l-3.37-1.7c-3.28.06-5.81.82-7.58,2.27-1.82.42-31.21-4.7-34.19-6.13-9.61-4.61-13.14-13.06-11.08-23.36.74-3.68,1.67-7.83,5.8-8.65,4.46-6.17,12.96-10.18,20.13-11.59l28.57-5.63c-5.89-18.16-10.7-24.22-11.98-44.66-55.43,4.51-101.08-25.67-120.25-76.46-7.78-20.6-10.51-41.8-10.09-63.86l.58-30.39c-19.04,8.53-38.95,12.43-59.16,7.58-22.94-5.5-42.73-19.06-56.79-38.12-39.45-53.45-36.1-127.73,3.71-180.6,55.83-74.14,161.52-82.73,231.24-22.55,1.38-1.04,2.84-5.02,1.83-6.44-40.12-28.48-31.05-86.42-10.89-124.2-4.76-4.86-15.33-22.67-11.54-27.48.87-1.11,2.65-1.54,4.45-2.3-.88-6.29-2.68-13.73,1.69-19.13,2.49-3.09,6.7-.04,9.13,3.03,2.3-5.75,2.85-11.56,6.25-16.64,5.12-7.66,15.53-16.2,20.79-9.98,2.87,3.4-1.47,9.36-2.27,15.92,2.81-3.26,15.63-10.78,19.98-4.5,1.06,1.53,1.16,3.7.35,5.47-7.89,17.25-8.45,30.93-7.08,49.94,15.02,13.78,25.79,30.2,35.61,48.43,4.12-1.55,9.28-2.74,12.78-5.16,7.39-11.5,15.16-22.28,26.55-30.25,5.82-4.07,21.55-13.78,26.98-7.63,3.4,3.84-.99,10.95-2.93,14.75,15.56-3.74,30.89-4.02,45.03,2.38,3.44-14.41,10.11-26.29,19.2-37.42-1.84-14.33-7.59-26.96-15.88-38.59-1.46-2.05-1.77-5.17-1.09-6.78,2.46-5.89,11.11-2.82,16.18-.16.38-4.51-1.45-9.6.72-13.06,3.45-3.84,10.3-3.49,14.25-.19Z"/>
    <g>
      <path class="st58" d="M688.98,484.91c.04-.4-.06-1.04.05-1.36.1-.29.57-.41.86-.63,3.77,2.48,8.38-.04,13.19,1.62-4.68,1.03-9.41.27-14.11.37Z"/>
      <g>
        <path class="st58" d="M606.15,335c-2.82-6.38-4.74-6.35-3.09-9.71,1.48,3.09,4.3,6.32,3.09,9.71Z"/>
        <path class="st58" d="M610,311.21c1.17-2.37,1.47-5.61,2.16-8.21,2.71.03-1.36,12.17-2.16,8.21Z"/>
      </g>
      <g>
        <path class="st30" d="M898.96,741.11c-.5,6.3.97,11.51,4.01,16.75l-127.98.11-136.8-.27c-4.03-.3-5.92-6.3-7-8.86-.29-.82-.46-2,.14-2.31,87.72-1.34,175.74-3.49,264.07-6.45l3.56,1.02Z"/>
        <path class="st122" d="M942.92,492.93c-1.61,6.9-5.94,12.09-13.21,13.31l-214.46.34c-2.46.61-4.5.39-6.11-.66-8.98-5.66-7.15.47-10.08-14.34l241.66-.08c1.07,0,1.69.01,1.95.25.23.21.22.87.24,1.18Z"/>
        <path class="st84" d="M942.19,502.01l-20.11,227.08c-.12,2.77-4.16,2.54-6.36,2.02-5.51-1.3-5.46-2.54-4.95-8.11l18.13-212.04.39-2.44c4.53-2.6,8.57-5.84,12.11-9.72.66.88.92,1.95.79,3.2Z"/>
        <path class="st122" d="M898.96,741.11c-18.43,1.73-36.81,2.05-55.96,2.62l-77.08,2.32-132.72,2.16c-1.06.02-1.58.29-2.02.62-1.72-4.03-1.56-9.1,2.4-12.28l266.24-.1c.53,1.87-.74,3.21-.85,4.64Z"/>
        <path class="st46" d="M942.6,631.17l-9.41,105.06c-.17,1.9-4.53,1.45-5.86.44l21.31-240.9c4.9,2.88,5.25,7.75,4.81,12.7l-10.84,122.7Z"/>
        <path class="st103" d="M667.08,610.07l-1.6-.65-10.59,112.35-1.42,3.38c-5.8,5.94-8.37,6.55-7.7,1.85l5.5-67.07,7.57-83.96,13.02-21.27-4.79,55.37Z"/>
        <path class="st21" d="M942.19,502.01c-.4-.68.04-1.49-.57-2.03-3.05,5.52-7.89,8.62-12.73,10.98-.23-.57-.71-1.59-2.17-1.59l-214.18.18c-1.94-.64-2.3-2.94-3.39-3.63,1.61-1.01,3.32-1.33,6.09-1.34l213.74-.32c6.74-.01,10.76-7.13,13.94-11.34.18,3.07-.48,6.13-.74,9.08Z"/>
        <path class="st50" d="M784.87,826.39c-.37,4.8-3.04,6.83-6.45,6.76-4.11-.08-6.15-2.86-5.8-7.18l4.99-61.62c3.93-1.01,7.81-.68,12.05-.18l-4.79,62.22Z"/>
        <path class="st121" d="M886.8,782.87l-.18,2.97c-2.58.5-3.36,2.23-2.35,5.2,6.64,17.95,12.6,36.29,17.88,55.02-2.07,1.28-4.02,1.24-6.09.43-1.4-.55-2.54-2.22-3.25-4.44l-24.84-77.81c4.57-.71,8.58-.71,12.86-.05l5.98,18.68Z"/>
        <path class="st118" d="M661.94,845.03c-3.01-1.29-4.25-4.05-3.11-7.2l19.26-52.81c5.11-4.51,11.25-5.76,10.14,3.35l-17.55,49.16c-1.82,5.04-4.74,7.55-8.75,7.51Z"/>
        <path class="st35" d="M916,742.11c14.06,1.49,26.15-2.85,25.93,8.32-.04,2.27-1.73,7.12-5.11,7.07-8.44-.14-17.72,1.63-26.01-.79-7.11-2.08-7.96-14.84-4.13-19.6,3.72,1.47,5.63,4.62,9.31,5.01Z"/>
        <path class="st119" d="M667.08,610.07c-2.17,30.09-7.55,89.86-9.9,117.89-4.7,7.12-7.67.52-11.97,3.37-.58-2.29.47-3.2.57-4.32.37.97-.2,2.24.72,3,1.1-5.35,5.95-2.76,6.67-10.13l11.47-118.42c1.11,3.27,2.58,6.68,2.44,8.62Z"/>
        <path class="st98" d="M661.94,845.03c3.22-2.12,6.02-5.62,7.5-9.76l15.77-43.99c.92-2.58,1.84-5.07,1.2-7.81-3.21.36-5.62,1.89-8.32,1.54l7.59-21.22c5.15.44,9.46-.88,13.75.8l-27.91,76.71c-.88,2.43-2.8,3.79-4.22,4.4-2.46,1.07-3.65.05-5.35-.68Z"/>
        <path class="st112" d="M902.14,846.06c-.57,0-1.85-.04-2.15-1.12-4.53-16.16-9.93-31.44-15.6-47.28-1.27-3.55-3.24-7.72-2.05-11.41.57-1.76,4.07-1.63,4.45-3.37l18.7,56.38c1.04,3.15-.67,6.24-3.35,6.8Z"/>
        <path class="st12" d="M817.11,485.75l-30.83.06c-.36-2.61-.47-8.89,2.81-9.4,10.02-1.56,19.76.11,30.17-.72-.82,3.45-1.6,5.73-2.15,10.05Z"/>
        <path class="st68" d="M922.08,729.09c-.17,1.95.63,5.57-.87,7.41-3.6,2-9.33-.63-10.85-4.64-1.19-3.13.19-6.28.41-8.86.29,1.12-.31,3.34.95,4.32,3.12,2.41,7,2.12,10.36,1.77Z"/>
        <path class="st6" d="M830.06,485.48c-2.67.97-4.36.67-7.13.35-.2-2.36-.3-6.59,2.58-7.73,2.56.23,3.86,4.48,4.55,7.37Z"/>
        <g>
          <path class="st127" d="M684.02,553.94c4.52-.91,7.95-4.71,11.42-6.62,13.71-1.34,23.09-12.82,22.46-26.32v-2.65c65.87-.4,131.81-.53,197.83-.39,1.77-.04,2.79,1.24,3.17,2.85-5.16,68.54-11.16,136.87-17.98,204.98l-2,1.06-229.55-.17c-1.94,0-2.91-1.24-3.14-3.1l14.28-165.1c-.07-2.7,1.19-3.49,3.5-4.52Z"/>
          <g>
            <path class="st116" d="M684.02,553.94c-1.28,1.96-1.66,4.35-1.57,7.22l-8.25,94.8-6.05,68.71,231.48.17,8.24-93.82,9.1-111.07-195.84.09c-1.8,0-2.89-.41-3.23.95-.74-2.05-1.35-3.6-1.37-5.89l206.38.1-18.41,215.46h-242.62s8.52-96.43,8.52-96.43l6.74-78.93,6.88-1.38Z"/>
            <path class="st33" d="M884.04,697.69h-16.12c-2.11,0-4.6-1.54-4.39-4.06l9.88-119.49c.34-4.17,2.08-7.07,6.6-7.04l16.01.11c2.62.02,4.81,1.73,4.51,4.91l-11.14,120.97c-.26,2.87-2.93,4.6-5.35,4.6Z"/>
            <path class="st124" d="M853.92,690.94c-.77,9.14-7.87,6.55-20.7,6.67-3.98.04-5.6-2.94-5.27-6.68l7.91-88.84c.27-3.01,2.19-4.93,5.15-4.95l15.05-.12c2.83-.02,5.59,1.76,5.31,5.06l-7.45,88.86Z"/>
            <path class="st29" d="M698.9,659.17c-1.73,1.56-3.84.97-4.97-.39-.7-.85-.55-2.56.92-3.87l33.81-30.21c3.7-3.3,13.78,9.93,19.5,12.68l28.72-36.42c1.05-1.34,3.27-1.43,4.52-.37,5.57,4.74,10.65,9.35,16.76,13.78l27.72-45.38c4.91-8.04,10.67,4.67,19.27,9.03l35.83-35.03c3.97-3.88-2.32-1.62-5.42-3.04-1.23-.56-2.7-3.34-.93-4.29,5.48-2.94,22-6.36,23.94-3.57,1.74,2.49-6.05,29.67-10.68,20.21-.63-1.28-.66-3.23-1.01-5.81-5.51,3.36-9.84,8.13-14.61,12.83-7.97,7.85-15.94,15.19-23.46,23.45-1.11,1.22-1.98,2.2-3.46,2.33-2.38.2-11.35-9.59-15.31-11.9l-28.78,46.95c-.99,1.62-2.83,1.79-4.18.74-6.05-4.7-11.28-9.82-17.61-14.21l-28.97,36.8c-3.53,4.49-13.64-10.21-19.68-13.03l-31.96,28.72Z"/>
            <path class="st17" d="M812.86,697.5l-16.07-.06c-2.89-.01-4.57-2.06-4.32-4.82l5.14-57.8c.26-2.96,2.25-5.11,5.33-5.11l16.11.03c2.87,0,4.5,2.42,4.25,5.28l-4.95,57.97c-.79,2.75-2.67,4.52-5.49,4.52Z"/>
            <path class="st125" d="M777.5,697.59l-15.51.14c-2.8.02-5.32-1.63-5.05-4.71l4.13-47.01c.24-2.71,2.45-4.63,5.05-4.64l16.78-.08c2.26-.01,3.49,1.82,4.16,3.94l-4.24,47.62c-.22,2.5-2.44,4.73-5.32,4.75Z"/>
            <rect class="st57" x="682.53" y="706.21" width="205" height="5.78"/>
            <path class="st16" d="M742.23,697.6l-16.26.11c-2.55.02-4.72-1.92-4.49-4.53l2.49-28.09c.28-3.15,2.88-5.41,5.96-5.42l15.06-.04c3.22,0,5.18,2.23,4.92,5.37l-2.2,25.96c-.28,3.3-1.48,6.15-5.5,6.64Z"/>
            <path class="st59" d="M707.02,697.7l-16.92-.05c-2.02,0-4.1-1.43-3.91-3.68l1.31-15.61c.25-2.97,2.31-4.76,5.25-4.8l16.27-.27c2.67-.04,4.59,1.94,4.37,4.7l-1.2,14.95c-.23,2.84-2.38,4.78-5.17,4.77Z"/>
          </g>
        </g>
      </g>
      <g>
        <path class="st37" d="M394.54,686.82c-.86,5.09-6.23,9.2-8.71,14.09-22.91-10.55-31.46-32.51-23.43-56.15,9.42,10.04,18.69,17.99,30.31,24.58-.93,5.89,1.66,11.33,1.83,17.48Z"/>
        <g>
          <path class="st95" d="M347.96,375.79c-1.8,13.18-2.35,26.38-.93,40.2.19,1.86-3.4.93-4.14,1.03l-2.34.17c-2.48-2.59-18.96-15.29-20.71-15.01-.93.15,6.85,15.11,8.1,16.93v3.83s-10.51,7.23-9.47,11.1c.44,1.62,2.4,2.37,4.72,3.47-5.6,7.21-11.21,14.21-11.75,23.71-.12,2.13.34,4.35,1.62,5.17,1.88,1.2,3.95.4,6.45-.34-1.22,6.4.1,36.25,11.64,28.09l2.28,1.87.66,16.2c1.74,5.48,1.17,9.72-1.72,12.71-6.38,2.96-11.9,6.57-16.59,10.83-1.62,13.92-3.41,27.88-5.37,41.87-1.18,4.03-2.96,8.19-6.26,3.11-1.07-22.63-5.73-45.23-17.79-64.68l-.31,11.18c2.09,23.73,1.41,47.2-2.02,70.41-3.33,6.3-6.42-3.19-7.1-6.86l-.52,14.46c-.85,2.93-2.37,2.3-4.49.46l-5.49-33.52c-.78-.8-1.61-1.7-1.81-2.84-.32-1.85-1.18-16.87-.92-17.72,1.55-1.15,2.04-3.02,1.47-5.62l-1.48-1.87c-5.36-43.62-32.83-93.84-82.51-90.78-41.94,2.59-61.18,45.18-56.49,83.14l-1.59,3.51c.64,3.52-1.26,3.1-3.6-.26-8.99-12.9-14.93-39.33-16.2-55.1-10.77-132.89,146.13-197.2,242.96-112.9.48.42.78,1.07,1.07,1.76s.49,1.49.64,2.28Z"/>
          <path class="st2" d="M388.01,532.11l1.93,1.05c-.6,8.05-1.2,16.1-1.8,24.14l-2.21,2.76c-4.8,5.55-18.56,13.83-31.56,29.33-13.2,15.74-7.89,33.92,3.59,48.9-10.65,28.1-3.4,54.18,24.97,67.93-7.89,11.01-15.61,22.12-17.98,34.77-.6.49-1.22.95-1.89,1.28-8.13,4.02-39.45-7.63-48.15-12.32-62.04-33.45-57.97-98.11-50.58-156.79l2.1-.98c4.21,5.98,5.64,25.75,7.72,34.28,1.79-7.94-.87-15.49,2.58-23.41l4.94,16.14c6.69-29.88,1.55-55.4,2.49-83.18.04-1.2.63-2.74,1.6-2.97.68-.16,1.65.91,2.3,1.95,12.48,20.17,17.16,42.99,18.18,67.56,6.93-11.08,3.85-44.63,8.87-49.45,6.98-6.69,19.29-8.11,17.94-14.1-1.92-8.54-.52-16.81-1.88-24.85.69-1.37,1.12-2.82,2.98-4.34,11.63,21.38,33.41,32.96,53.88,42.32Z"/>
          <path class="st56" d="M265.18,546c.73,8.49,2.07,17.52,1.25,26.17l-3.68,38.87c-3.21,33.94,2.13,69.74,25.61,95.67,19.68,21.74,47.82,33.73,76.6,34.27l-2.72,14.5c-23.95,2.63-48.67-2.54-69.25-15.47-42.59-26.75-57.09-75.86-54.96-124.03,1.34-30.34,1.29-60.5-13.21-87.94-8.72-16.5-26.47-34.98-46.99-28.21-.8.38-1.11,1.13-.15,1.08.94,3.35-6.2,6.64-6.38,2.17-1.25-5.19,8.38-9.46,12.9-10.79,38.55-11.38,76.35,20.81,80.23,58.86-.39-2.42-.14-4.13.75-5.15Z"/>
          <path class="st7" d="M124.22,559.64c-.98-2.89,1.65-5.99,4.65-5.56-.81-7.29-.87-13.8,1.25-21.05,1.13-3.86,4.44-13.48,8.74-13.72.49-.03,1.02.72,1.56,1.69,3.12,10.34,6.7,20.68,13.38,29.28-1.36-12.57-.64-26.42,6.02-37.49,2.37-3.94,6.66-10.7,11.46-9.71,2.41,1.29,4.32-1.67,6.38-2.17,7.78-1.9,15.8-.12,22.59,5.04,22.3,16.95,30.72,50.63,31.6,78-33.68,16.82-66.3,13.3-95.13-10.5-5.29-4.37-8.47-9.32-12.5-13.81Z"/>
          <path class="st92" d="M347.96,375.79c-13.4-11.35-27.24-21.85-44.21-28.68-28.54-11.48-59.49-14.16-89.69-8.09-45.95,9.23-84.03,41.08-100.33,84.94-14.3,38.47-11.3,80.99,8.6,116.81.88.48.72-.36.78-.77.74-.2,1.73-.44,2.18.05,1.79,1.91,4.28,11.05,3.59,14.03-1.3,2.08-2.87,3.86-4.65,5.56-12.65-14.1-20.56-31.65-25.21-50.62-8.23-33.54-4.73-67.67,10.45-98.79,15.62-32.04,41.69-57.71,74.15-72.49,53.97-24.56,123.35-12.9,166.16,28.26-.3,3.8-1.39,6.68-1.82,9.8Z"/>
          <path class="st40" d="M342.9,417.02c-4.55,1.99-10.49,3.51-14.96,5.92-4.66-7.4-8.74-15.43-11.57-24.46,6.86,2.02,23.51,14.39,26.54,18.54Z"/>
          <path class="st11" d="M385.93,560.06l2.08-27.95c1.26.57,4.54.52,5.38,2.32-.03,28.8-3.47,21.02-7.46,25.63Z"/>
          <path class="st111" d="M265.18,546c-.44,1.46.48,3.17-.75,5.15-4.64-17.91-13.44-34.49-28.18-46.14s-31.97-16.14-49.6-11.36c-6.21,1.68-11.67,4.7-15.35,9.43-16.53,12.08-18.08,34.08-14.47,53.91-9.71-10.27-14.95-22.64-18.36-36.53-6.86,9.18-8.61,19.85-8.33,30.62.05,1.78-.71,2.11-1.27,3l-5.77-14.08c-2.77-20.29-.31-41.28,10.58-59.21,8.5-14,21.1-24.52,37.08-28,26.66-5.82,52.47,5.03,69.27,26.26,15.29,19.31,23.08,42.81,25.15,66.95Z"/>
        </g>
        <g>
          <path class="st95" d="M686.88,511.02c-3.21,6.13-10.96,7.98-17.02,5-4.87-5.61-7.15-6.59-6.84-2.94.84,1.4,1.4,3.31,1.93,4.86l2.62,4.71c-1.03,4.01-.58,5.79,1.33,5.34,4.43,3.68,9.18,6.95,14.24,9.8-.12,11.04-12.63,10.21-20.21,6.18-1.4-1.56-4.27-2.21-5.41-4.4.18,3.94,3.26,5.62,4.4,8.51.09,1.68-.09,3.36-.82,4.88-5.29,10.96-23.01,27.92-32.89,35.56-18.21,14.09-49.59,14.83-63.96-4.28-3.4-9.55-8.1-18.77-14.62-27.34,19.77,51.94,36.9,99.9,23.75,155.5-.13.56.13,1.4.32,1.8.12.26.42.16.85.03l2.73,1.43c17.07,30.52,10.61,67.37-12.24,92.32-1.44.86-2.69,2.09-5.09,2.19.34,1.76,1.72.63,2.31.86,8.59-1.07,16.82-.37,25.54.53,2.12.22,18.56,2.36,19.28,3.03.67.63.47,1.66-.02,2.53-1.02.23-2.16-.59-3.21.29,8.22,3.77,19.21,9.17,22.14,16.53,1.81,4.91-6.33,8.27-8.7,4.25-3.79-10.41-15.71-14.91-26.44-12.71,7.88,1.58,20.93,5.43,21.17,13.75-1.06,6.33-13.44,5.48-18.84,5-17.28-3.33-34.76-6.21-52.45-8.64-14.39-2.72-17.12-6.81-12.93-20.57l7.25-19.65c3.03-7.77,3.88-15.29,2.55-22.55-1.48-.91-1.97-2.06-1.48-3.44-21.99-8.58-54.01-4.09-74.85,5.86-20.7,9.89-26.84,31.46-19.02,51.78l-.19,3.54c-10.04,3.61-20.33,6.73-30.88,9.37-9.75,5.24-52.73,20.17-57.49,4.26-.5-1.65-.41-2.32.54-3.96,1.9-2.11,3.14-4.63,6.48-5.75l13.77-4.62c-10.17-1.86-20.58,1.93-26.27,9.96-1.76.54-3.61-.15-5.54-2.06-2.86-.75-4.38-2.09-4.58-4.01,1.16-1.14,1.51-3.09,3.45-4.29,5.6-3.47,11.41-5.4,17.61-7.03-16.67-2.11-28.49,6.47-30.41,23.85-2.76-2.85-3.64-7.97-2.21-11.83,2.91-7.87,9.43-13.4,17.49-15.46,11.58-2.95,22.98-5.55,34.99-6.16s25.82,7.5,24.9,4.09c-35.36-26.94-32.67-102.75,19.53-104.81,6.92-.74,11.85-3.41,14.79-7.99l6.75-.97.85.08,2.12,2.19c-.42,61.38,74.3,65.5,103.89,21.86l3.18-1.25c21.46-47.21,15.15-100.65-3.16-148l-2.86-1.15c-3.79-7.36-7.73-14.79-13.72-20.64l-.37-3.04c-.47-.63-1.11-1.63-.75-2.06,1.78-2.11,13.02-13.43,14.72-14.52.92-.6,2.16-.94,3.2-.57,1.63.84,3.2,1.75,4.65,2.89.1,1.29-.27,2.08-1.12,2.35,15.35,5.82,30.89,10.35,46.64,13.58,13.84-6.01,32.5-16.6,43.57-26.72.21-.19.2-.61.13-1.11,6.22-3.43.01-10.38,5.25-24.71,1.67-4.58,4.62-9.17,9.39-10.59,12.81-3.82,27.88,8.54,26.29,19.31Z"/>
          <path class="st101" d="M372.89,221.3c16.42,14.25,30.38,33.56,37.54,54.05l-.53,3.62c.13.28-.08.72,0,1.02.87.32,1.69.52,2.34.27,4.81-1.81,15.92-6.54,19.75-9.06-.14-.88.51-1.55,1.95-2,.61-.14,1.2-.52,1.85-.23l1.53.93c2.07-7.97,32.73-36.94,39.06-35.63.65.13.61,2.07.38,3.11l-10.15,14.37c-3.82,5.25-1.64.4.19-.51.25-.12.77.3,1.37.87l.02.72.51,1.6c16.45-7,37.43-11.5,54.34-4.38-3.22,2.49-23.85,3.26-26.06,7.14l.38,1.35c10.55,1.95,20.16,8.32,27.46,15.42,1.97,1.59,3.76,5.74.86,7.45-4.58-.54-13.89-9.86-21.27-8.27,8.68,8.22,12.11,19.12,8.69,29.71h-2.44c-6.71-8.9-15.75-18.45-27.45-19.39,7.18,6.52,11.58,14.11,13.2,22.78-.12,3.48-1.03,6.64-5.12,5.5-8.28-7.6-17.64-14.01-28.31-17.63-.42-.01-1.05-.25-2.02.71,9.4,7.87,17.4,17.04,22.67,28.53.87,1.89,2.17,3.14,3.32,3.74,3.5,1.81,17.73-3.65,18.82-15.55,2.19,1.23,2.23,2.9,3.12,3.32,1.51.71,3.19.29,4.35-.77,7.78-7.1,7.06-18.83,5.76-29.5,3.9,2.08,8.8,4.77,11.46.93,3.94-5.7.84-13.25-3.24-18.15,2.29-1.05,3.45,1.27,4.77,1.77,23.15,13.39,42.57,30.95,56.83,54.67,10.53,17.51,21.77,47.23,21.09,67.74-.05,1.64-.94,3.12-1.8,4.47,2.8,1.34,1.47,4.06-1.23,4.16-.63,0-2.7,1.06-2.63-.38.79-16.41-2.88-31.95-7.44-47.3-2.96-9.97-8.41-16.49-13.75-23.44l-2.7-.17c-7.34-9.2-18.88-14.36-29.98-8.6l-2.61-.87c-4.53,2.6-8.9,4-12.33,9.35-17.75,27.66-13.5,69.18-5.5,99.24l-2.98,1.48c-12.57-2.14-25.57-.44-36.49,6.38l-3.31-.21c-2.2-32.3-5.17-64.6-28.71-90.02-6.51-7.03-19.22-16.32-27.45-14.66l-2.28,1.46c-9.51-2.14-19.08,1.96-25.96,8.49l-2.81-.04c-27.95,16.26-26.94,57.93-15.84,85.94-4.72-.97-8.61-2.84-12.26-4.76.4-2.04.22-2.37-.54-.96-12.58-37.94-7.96-83.32,14.84-116.09.46-2.05,2.77-2.97,3.96-5.02-.98-2.85-1.22,1.69-3.54,1.3-.15-20.13-7.05-52.24-22.76-66.06-1.32-1.16-5.81-2.1-4.7-.1,1.31,1.64-.48,3.73-2.12,1.9-.36-.22-.78-.74-1.06-.46-.38.38-.92.57-1.29,1.23-11.42,20.19-15.21,43.98-10.26,66.76,2.47,11.36,8.29,20.82,16.63,28.34,1.61,1.45-.53,3.17-.99,4.13-3.33,3.27-9.63-2.84-11.95-5.9-17.07-22.55-16.39-52.13-10.26-78.18,3.67-10.8,7.27-21.98,14.48-31.66,5.15-6.91,15.17-5.51,20.59.05Z"/>
          <path class="st8" d="M485.03,559.1c-17.24,17.4-21.95,58.81-26.3,82.49-6.14-4.1-14.82-3.96-21.75-2.69l-2.25-1.02c-1.5-8.07,5.41-28.65,8.29-36.87.86-1.53.37-2.11-1.25-1.34-8.47,5.45-17.11,10.51-26.22,14.11-4.82-3.59-7.59-8.95-14.17-9.72,12.16,13.16,21.54,26.79,30.36,42.1,7.59-4.25,15.91-5.25,23.14-1,6.25,3.67,8.97,11.2,7.35,18.14l-8.18-7.25,8.97,15.91c1.5,2.66,1.34,5.74-.39,8.06-1.34,1.79-4.53,4.22-7.12,2.53-2.28-1.48-1.72-4.75-2.89-7.53-1.35,1.59-2.48,4.44-1.6,6.85,1.28,3.51-1.08,5.98-1.17,8.43-3.94,7.96-12.2,6.87-12.2-1.96l-.73-1.36c-1.48,1.49-1.26,3.96-1.85,5.94-3.84,7.32-9.97,11.93-15.8,3.21l-12.2-29.53c-17.16-11.34-40.24-30.08-41.43-52.28-1.26-23.43,27.59-46.79,45.59-59.1,8.43-5.76,17.47-11.24,28.12-9.33,14.35,4.05,28.75,7.84,43.22,11.37l2.47,1.83Z"/>
          <path class="st78" d="M367.02,421.09l2.34,4.55c.4.78-1.57,1.88-1.11,2.69.37.66,1.06,1.02,1.66,2.29-4.02.47-7.57,1.63-10.38,5.01-8.97,10.81-10.5,25.54-4.57,38.39,9.84,21.32,33.56,36.27,55.23,43.82,18.49,6.45,37.8,11.4,56.79,11.33,2.3,2.31,4.42,4.59,6.81,8.2-37.79,1.86-77.48-3.87-109.75-25.38-14.78-9.85-28.91-24.87-29.02-44.37-4.25,5.67-4.81,11.63-7.41,18.69-4.18-10.34-2.13-20.92,3.05-31.37-5.07-.37-7.41,2.97-11.76,4.06,2.06-13.08,13.74-20.83,23.18-26.95l-12.88-1.83c10.74-7.08,23.11-8.87,35.62-6.84.29-1.77-.79-2.45-.87-3.35,1.54-2.81,3.45-2.11,3.05,1.06Z"/>
          <path class="st60" d="M552.06,536.03c-1.91-.74-1.38,1.93-2.29,2.8l-14.89,14.34c-21.34,7.71-29.5,3.85-49.86,5.93-14.53-2.77-29.06-5.92-43.56-10.6-14.99-4.83-30.16,9.01-41.67,18.3-9.15,7.39-17.66,14.9-24.61,24.28-22.5,30.37,9.65,58.47,33.34,74.27l12.66,30.25c.69,1.64,2.69,2.59,3.73,3.07,1.52.71,4.01,0,5.39-1.3l4.74-4.44c-1.25,4.18-3.21,8.66-8.14,10.03-8.47,2.35-17.04-1.75-21.34-9.36-3.52-6.23-7.12-13.27-6.95-20.75,5.8-3.37,5.51,15.93,15.13,15.75-4.27-4.87-5.71-12.91-8.76-17.4-12.19-8.9-24.74-16.2-34.75-27.38-12.55-14.02-25.59-34.07-10.47-51.2,10.14-11.49,21.66-21.36,34.15-30.51l28.55-20.91c19.09,2.8,37.82,3.46,57.21,1.85,16.64,13.74,40.43,12.32,54.15-4.01,6.84-.14,14.91-4.73,18.23-3.02Z"/>
          <path class="st126" d="M444.95,703.12c-.38,1.9-3.66.06-4.82,1.33-1.03,1.14-1.02,3.53-3.15,4.74-18.01,10.3-29.03.28-43.02,18.99-10.38,13.89-13.98,31.4-10.78,48.73,4.52,24.51,19.34,34.91,20.69,39.98-7.23-3.23-13.91-7.34-22.4-8.04l-9.37-23.98c-11.07-28.32.37-56.45,17.33-79.43,3.2-4.33,5.53-8.98,9.13-13.06,4.82,10.14,12.78,16.96,23.37,16.87,5.38-.05,10.31-1.76,13.32-6.11l9.69-.03Z"/>
          <path class="st94" d="M536.1,769.35c3.16,1.23,4.59,3.8,4.41,7.68-1.38,29.75-24.28,50.3-4.89,55.31,11.59,2.99,23.25,3.74,35.12,5.77,11.83,2.02,31.05,8.14,41.27,1.09.04,1.31,1.24,2.59.52,3.94-3.21,5.99-20.1,3.89-27.33,1.75-22.67-6.69-38.24-3.2-61.94-7.12-3.63-.6-8.37-1.4-10.44-4.54-2.29-3.47-.06-8.24,1.51-11.69,8.06-17.7,5.61-36.92-8.82-51.13,9.89-2.67,19.62-2.29,29.42-.31.7-.11,1.58-.12,1.18-.74Z"/>
          <path class="st94" d="M564.26,584.23c1.94-.15,2.8,2.02,4.34,3.14,18.61,13.58,42.9,12.36,60.59-2.14,13.1-10.74,23.83-23.24,32.75-37.16,1.38,1.24,3.95,1.79,5.39,4.03-11.47,19.93-25.05,38.63-41.98,54.01-5.69,5.17-11.62,8.33-19.36,8.09-11.02-.35-22-1.37-32.63-4.41l-9.09-25.56Z"/>
          <path class="st34" d="M579.83,208.94c20.95,30.11,31.5,67.68,22.02,103.89-1.14,2.42-1.58,5.02-3.75,7.61l-7.51-10.86c11.6-30.4,6.21-65.33-14.49-90.53-.88-.8-1.66-1-1.79.02-2.45,2.27-4.29-.28-4.28-3.1-.72,1.97-1.43,2.35-2.14,1.14-.32-.26-.73-.86-1.09-.67-.43.23-.83.54-1.22,1.04-10.35,13.5-8.38,39.12-7.89,54.58-3.02,2.2-6-2.14-7.72-4.7-11.63-17.24-3.11-54.42,13-67.23,7.32-2.79,12.64,3.63,16.86,8.82Z"/>
          <path class="st43" d="M361.95,236.12c.22,1.03.14,2-.23,2.91,6.81,13.52,8.57,29.52,7.02,44.52-.87,8.37-5.31,28.01-11.41,33.54-.83.75-2.06.85-3.16.88-13.77-19.51-8.8-60.9,2.83-80.97.69-.12,2.08-1.18,2.12-1.9.97.12,2.07.33,2.83,1.02Z"/>
          <path class="st53" d="M371.85,422.03c-1.45-.76-3.4-.31-4.83-.94-.99-.43-1.99-1.41-3.05-1.06-2.59-1.49-6.15-2.56-10.16-3.24-5.52-36.92,6.77-84.38,32.35-111.81-1.23,5.54-5.01,10.11-7.47,15.69-12.79,29.1-17.02,68.36-5.57,98.52.26.68.07,1.65.2,2.22.13.6-1.03.57-1.46.63Z"/>
          <path class="st120" d="M354.17,317.97c15.49-19.42,16.93-56.66,5.83-78.04-.92-1.77.58-3.66,1.96-3.82,12.43,11.2,20.96,50.95,19.76,68.46-7.52,8.06-12.63,16.61-18.29,25.88-4.39-4.16-8.02-7.73-9.26-12.49Z"/>
          <path class="st104" d="M574.3,219.07c13.86,20.47,23.34,50.58,16.8,74.83l-3.25-.46c-14.22-16.36-23.1-48.91-20.57-70.33.28-2.4,1.03-5.44,2.75-7.15l4.28,3.1Z"/>
          <path class="st106" d="M367.19,183.18c3.47-6.4,9.99-11.54,17.08-13.8.75,2.82-1.65,4.64-2.4,6.73-6.53,11.53-6.62,26.64-6.28,39.9-.03.74-1.25-14.17,1.35-14.05-.12,5.68.55,11.43-.36,17.37-7.77-5.31-15.51-6.62-22.89-3.46-2.91-.43-5.01-2.45-6.29-6.05,0,0-2.47-6.37-7.42-19.1.24-1.94-.88-4.16.4-6.8,3.62,5.37,6.2,11.52,13.18,14.5-4.51-13.59-1-31.6,11.11-38.07.01,2.74-.67,5.69-2.06,8.83-1.37,4.98-2.69,10.27-2.02,15.46,1.08,8.42,2.13,9.77,3.78.36l2.81-1.83Z"/>
          <path class="st24" d="M591.1,293.91c-.95,3.51-1.15,7.24-3.65,11.25-7.07-8.5-14.7-15.96-23.81-22.87-3.19-19.76-4.87-47.45,4.24-65.19.72-.26,1.46-.77,2.14-1.14-2.51,10.92.87,37.24,4.54,48.53,3.58,11.01,8.58,21.76,16.53,29.41Z"/>
          <path class="st36" d="M562.96,200.13c-10.83,14.93-17.6,31.77-15.99,50.9.71,8.38,3.63,17.03,10.7,21.03.07,2.27,1.59,4.42.53,7-9.53-7.27-19.08-11.24-30.2-15.6,3.83-6,4.36-11.33,5.41-17.22,2.81-15.79,11.15-29.38,21.93-40.77,2.42-2.56,4.77-4.25,7.62-5.34Z"/>
          <path class="st105" d="M556.03,152.07l-.6,1.28c6.15,6.12,9.95,14.07,11.4,23.84,1.32-1.19,2.61-1.84,3.88-1.96,3.08-5.76,5.5-7.05,7.28-3.87.04,6.19.36,12.32.96,18.4,4.75-3.99,10.09-8.39,8.06.86-1.53,3.17-2.54,6.27-3.01,9.3-1.04,2.21-1.15,4.49-3.24,5.11-7.86-7.24-13.83-9.68-22.79-5.9-2.49-2.39-4.02-5.7-4.58-9.93,0,0-2.02-4.5-6.05-13.51-2.42-2.73-3.58-5.58-3.46-8.56l10.75,5.93-2.97-18.03c-.29-1.75.15-3.55,1.91-4,1.03-.26,1.5.53,2.45,1.05Z"/>
          <path class="st13" d="M613.02,395.01c.12,2.93-3.8,3.88-4.9.96-1.38-44.99-23.52-86.97-59.87-114.07-5.58-4.16-11.52-6.86-16.38-11.85-.66-.4-.76-1.03.12-.95,48.58,18.49,80.88,75.47,81.03,125.91Z"/>
          <path class="st86" d="M513.1,302.84c-.68,2.1-1.25,4.42-2.61,6.18-3.36-5.05-5.14-10.21-10.55-13.53,1.07,6.46,2.54,11.46.48,16.89-1.89,4.98-6.47,8.2-11.62,9-5.86-11.96-15.07-20.64-25.83-27.29,11.29.29,21.01,8.5,30.12,16.69,5.61-8.8-8.12-22.41-14.44-29.31,13.92-2.33,27.64,11.35,34.45,21.37Z"/>
          <path class="st14" d="M565.03,807.96c-3.91,2.57,6.76-11.9,8.38-14.61,9.57-16,13.85-34.69,10.6-53.2-1.68-9.54-6.16-17.5-9.47-25.94.74-1.65,1.26-3.48,3.37-4.74,9.25,16.19,15.84,31.99,13.08,51.55-2.29,16.23-8.47,31.47-18.72,44.05-1.71,2.11-5.44,1.8-7.25,2.88Z"/>
          <path class="st4" d="M360.03,336.99c-1.01,2.08-1.96,6.68-4.05,9.05-30.82-19.91-28.22-63.53-18.16-93.12,1.06,1.02,1.34,2.63.17,4.27-4.41,22.61-3.45,52.08,10.58,71.27,3.12,4.27,6.75,7.26,11.46,8.54Z"/>
          <path class="st10" d="M677.73,489.25c-4.19-.46-7.48-2.94-12.31-3.08,2.14-10.15,5.55-19.8,10.98-28.77,1.6-2.65,4.44-3.69,6.86-3.26,11.49,2.04,0,35.72-5.53,35.11Z"/>
          <path class="st85" d="M354.21,840.2c4.93,18.96,44.08,3.41,56.41-1.66,9-3.7,18.21-5.44,27.48-8.29,2.02-.62,3.98-1.28,4.13-3.25.69,1.8,1.57,3.85.49,6.18-.56,1.21-2.07,2.56-4.11,3.31-15.32,5.64-20.99.39-38.03,9.16-13.16,6.77-27.68,9.8-42.32,8.03-3.87-.47-6.91-1.94-7.5-5.06-.77-4.02,1.29-6.02,3.45-8.42Z"/>
          <path class="st55" d="M601.85,312.83c-.35-.1-1.24-.99-1.04-1.97,7.57-36.25-2.12-70.14-21.57-100.92-.22-.51.1-1.25.59-1,12.9,15.85,22.76,33.92,26.57,54.57,3.12,16.86,2.53,34.28-4.55,49.32Z"/>
          <path class="st79" d="M436.97,638.9c-.97.24-3.03,2.38-4.06,1.42-3.85-7.2-7.95-13.7-12.85-20.89,7.97-6.2,15.76-11.87,22.95-18.42,1.54,1.66.25,3.51-.35,5.64-1.5,5.35-7.33,29.28-5.69,32.25Z"/>
          <path class="st48" d="M556.71,538.92l44.95,15.41c14.05-6.3,31.47-20.25,44.28-27.32.36-.21,1.17.22,1.02.49-3.54,6.18-27.42,20.94-35.23,25.32-5.93,3.33-11.98,3.35-18.58,1.9-14.8-3.24-28.48-8.37-43.14-13.13,1.88-1.29,4.57-2.22,6.71-2.68Z"/>
          <path class="st102" d="M691.99,531.62c-6.28,3.1-13.72.2-15.06-6.75,9.52-2.18,16.86-8.94,21.66-17.61.79-1.28,4.13.71,5.1,1.73,3.7,3.93-.59,17.14-11.7,22.63Z"/>
          <path class="st114" d="M468.17,252.11c-1.39.44-2.49,1.5-3.8,2.36,1.87-8.25,7.8-12.71,11.87-19.37-15.85,12.23-22.94,14.25-34.41,31.85-1.73,2.66-3.34,5.32-6.62,6.34.37-1.6.1-3.52.57-4.32,9.82-16.6,25.78-34.34,45.14-37.55-2.34,8.88-8.29,14.25-12.75,20.68Z"/>
          <path class="st45" d="M556.03,152.07c7.19,3.91,10.8,14.8,13.8,22.31l7.23-13.17c3.6,8.5,2.95,16.84,3.13,25.31,3.28-1.49,5.1-3.92,9-4.82.87,6.97-2.57,12.67-5.19,18.2-3.19,1.47,3.51-10.97,2.53-13.37-3.81.87-4.75,4.5-7.87,6.08-4.21-2.43-.98-16.17-2.58-22.31-2.37,4.16-5.95,8.02-11.19,10.01-2-17.19-8.54-22.85-10.41-27.91-.24-.66.99-.45,1.55-.34Z"/>
          <path class="st49" d="M409.9,278.98c-5.26-11.13-9.34-22.57-16.91-33.03-6.46-8.92-13.44-16.73-20.1-24.64,12.05,5.77,26.56,27,33.8,38.98l8.69,14.39c-1.67,1.96-3.51,3.27-5.48,4.3Z"/>
          <path class="st87" d="M662.93,543.96c2.57-2.48,9.31,4.21,16.6-1.34,1.22-.93,2.76-4.17,1.19-5.01-3.93-2.1-7.8-3.35-10.78-6.72-1.44-1.63-3.1-1.25-5.43.02.42-4.47,1.91-8.74.44-12.98,1.59,3.05,5.65,4.74,8.39,6.76.35,6.09,5.85,11.03,11.96,11.86,1.33,2.34,2.14,5.85,5.47,7.71-8.28,7.42-20.93,7.41-27.83-.32Z"/>
          <path class="st93" d="M624,819.23c.33,2.57-.96,3.13-3.88,1.69-3.53-2.46-9.14-2.55-13.07-3.82-.98-1.72-3.13-.63-5.05-1.04-11.33-2.45-22.35-3.78-34.02-4.04-1.99-.04-4.37-.49-5.73-1.01,16.1-6.53,47.67-1.17,61.74,8.23Z"/>
          <path class="st63" d="M543.89,167.12c7.34,9.21,11.87,20.11,14.08,31.99-2.33.98-3.32,3.83-6.27,4.56-1.78-14.47-7.12-27.33-16.34-39.32,4.06-1.14,6.35,1.17,8.52,2.77Z"/>
          <path class="st19" d="M695.63,540.69c-3.18-.04-6.76-1.91-5.96-5.02,10.09-2.96,17.78-10.96,18.93-21.92,4.82,5.42,4.55,11.89,1.7,17.7-2.57,5.24-7.51,9.33-14.68,9.25Z"/>
          <path class="st107" d="M353.69,215.87l-7.38,6.63c-5.02-4.7-8.91-11.15-10.71-18.61l8.16,4.11c-1.58-6.23-4.49-11.52-3.78-17.28.32-.14.67-.43,1.11-.54s1.18.66,1.4,1.48c2.41,8.85,5.82,17.22,11.19,24.21Z"/>
          <path class="st74" d="M523.04,250.04c-20.25-4.45-40.91-.2-59.99,8.56,1.23-2.76,3.83-4.16,5.13-5.77,11.28-7.39,48.64-12.26,54.85-2.79Z"/>
          <path class="st113" d="M348.19,839.79c-2.32,3.28-1.45,8.17-1.75,11.49-3.1.78-10.19,0-12.06-3.21-2.9-4.99.36-11.07,3.69-14.35,3.71,1.05,7.76,2.99,10.12,6.07Z"/>
          <path class="st73" d="M367.19,183.18c-1.92,3.54-1.12,9.44-5.46,12.88-6.24-15.03-2.75-22.93,2.95-35.7.67-.36,1.17-1.34,2.56-1.16-3.44,8.3-4.88,16.95-2.86,25.8,1.46,0,2.01-1.24,2.82-1.82Z"/>
          <path class="st117" d="M524.82,273.94c-1.57,1.03-3.29-.54-4.79-1.77-8.25-6.78-17.17-11.28-27.82-13.01,1.27-1.74,3.66-.96,4.77-1.99,8.52-.58,26.2,7.61,27.84,16.77Z"/>
          <path class="st77" d="M693.08,493.44c4.26,5.69,2.56,13.32-1,18.89-.11-9.12-3.87-15.46-10.93-20.44,3.54-1.47,9.21-2.09,11.93,1.54Z"/>
          <path class="st52" d="M686.88,511.02c-.87,5.93-6.7,10.9-13.22,9.21-4.6-1.2-7.54-5.01-10.09-9.32-1.05.34-.51,1.45-.55,2.17-1.05-1.74-2.25-4.06.05-6.24,2.72,3,4.79,6.21,8.19,7.67,5.88,2.51,10.91-.6,15.62-3.49Z"/>
          <path class="st82" d="M414.1,539.71c-4.96,3.77-9.17,6.89-14.44,10.01-.2-4.41.03-8.68.73-13.66,4.59.92,8.58,1.99,13.71,3.65Z"/>
          <path class="st66" d="M381.87,176.11c-3.02,8.38-4.23,17.05-4.93,25.85-.34,4.19-1.33,8.65-1.35,14.05-2.76-14.27-.71-29.11,5.72-42.11,1.21.85.29,1.69.56,2.22Z"/>
          <path class="st39" d="M433.94,269.2l.1,4.16c-9.26,1.64-16.93,6.41-25.93,9.86.08-1.54,2.21-1.79,1.78-3.23,8.19-3.24,15.43-8.8,24.05-10.79Z"/>
          <path class="st90" d="M449.82,690.3c-.23,6.15-6.17,8.94-12.83,8.17.17-4.01.24-7.66-.1-11.48,2.11.46,1.47,2.87,1.21,4.94.6-.27.82-1.15,1.34-1.28.98-.26,1.82,2.91,3.25,3.27,2.28.57,4.36-2.87,7.12-3.61Z"/>
          <path class="st32" d="M620.12,820.92c1.08-1.02,2.63-1,3.88-1.69,5.35,3.57,9.69,9.55,7.61,16.97-2.7-5.93-6.19-11.59-11.48-15.28Z"/>
          <path class="st42" d="M617.28,838.16c3.21.03,7.85-.86,8.7-4.25.8,2,2.65,5.21.39,7.4-2.29,2.23-6.1,2.87-8.88,2.74-.53-2.26.39-4.25-.22-5.9Z"/>
          <path class="st5" d="M523.45,261.02c-2.41.3-4.58-1.92-6.68-2.63l8.94-2.09c-.04,1.44-.56,4.51-2.26,4.72Z"/>
          <g>
            <path class="st71" d="M534.89,553.17c7.88,6.79,12.24,15.84,16.95,24.83,17.24,45.93,23.57,103.62,3.16,148-15.55,25.27-46.47,37.93-75.52,29.74-25.51-7.2-32.6-29.28-33.68-52.55,5.55-2.59,7.37-9.47,10.91-13.51,3.21-3.04,9.16-2.96,11.25-7.64,2.12-4.74-.06-9.23-1.21-13.14,2.85-10.52,1.19-21.15-8.03-27.31l-1.56-2.62c.62-10.52,4.33-26.52,6.88-37.06,2.77-11.42,9.06-34.81,17.93-42.4l3.06-.41,2.13-2.21c15.39.61,30.28-.98,44.69-4.78l3.04,1.06Z"/>
            <path class="st123" d="M555,726c-.54.15-.93-.23-.98-.57-.09-.66.51-1.11.76-1.72,3.45-8.26,6.17-16.39,7.72-25.31,4.83-27.83,4.01-55.36-1.8-82.95-2.43-11.54-4.51-22.42-8.85-33.32-.59-1.47-1.52-3.39-.01-4.14,7.53,14.37,12.07,29.45,15.27,45.97,5.54,28.64,5,57.31-4.09,85.16-2.06,6.3-4.81,11.66-8.02,16.87Z"/>
          </g>
          <g>
            <path d="M529.93,427.97c2.72.56,6.54,3.49,7.93,5.96,2.43,4.31.16,9.1-2.09,12.92-4.08,6.9-10.81,10.94-17.65,14.16-1.89,3.19-3.25,5.56,1.59,7.6,18.9,7.97,34.98-.94,42.96-18.7.27-1.28,1.42-2.9.63-4.49-1.21-2.43-3.87-3.19-6.27-5.29,7.47.87,15.14,4.09,19.35,11.63-4.09-.03-3.44-2.2-9-4.49,1.08,14.9-13.53,20.93-18.93,30.22-6.4,11-11.41,47.66-34.09,52.09-30.78,6.02-49.6-26.44-57.43-51.52-3.72-4.75-10.14-8.58-12.85-14.55-4.47,1.18-5.13,5.56-9.19,5.86,5.2-7.67,12.76-14.88,20.84-15.43-.93,3.01-3.13,5.52-6.61,7.52,11.89,17.26,39.14,21.79,56.07,9.54,3.36-2.43,6.27-5.19,3.98-8.83-7.5-1.63-15.14-3.54-21.16-9.09-3.03-2.8-6.67-6.55-6-11.05.4-2.66,3.33-5.12,5.16-6.4,12.6-8.84,27.77-10.75,42.77-7.65Z"/>
            <g>
              <path class="st0" d="M509.16,462.16c.59.13,1.41.3,1.81.61,2.89,2.21-1.56,7.74-5.75,10.46-17.78,11.56-47.03,7.57-58.62-12.08,2.97-3.23,6.25-4.95,9.12-7.22-.32,6.22,2.8,12.15,8.35,16.04,12.64,8.86,30.16,8.18,41.78-1.91,2.03-1.77,3.46-3.64,3.31-5.9Z"/>
              <path class="st44" d="M562.67,449.9c-1.79,8.55-8.06,16.06-14.39,19.51-9.88,5.39-19.66,4.94-28.87,1.23-7.61-3.06-4.44-8.81-4.66-8.6.91-.85,2.35-.56,3.37-1.04,2.29,4.86,7.48,7.84,13.41,8.44,11.65,1.18,22.25-5.89,27.78-16.08.93-1.71,1.8-3.13,3.36-3.47Z"/>
              <path class="st127" d="M502.93,501.14c-2.34-1.9-3.87-5.34-4.54-8.24-1.4-5.98-1.15-7.38,3.64-10.7,2.81-1.95,10.67-6.26,10.79-1.3.43,4.48-.24,7.97.54,12.24,3.3-8.03.31-11.15,1.87-19.12l14.45,4.52c-1.15,6.37-1.85,14.51-7.04,19.12-5.23,4.65-13.49,4.01-19.71,3.48Z"/>
              <path class="st81" d="M495.05,523.93l-1.85-1.69c1.35-7.19,5.64-11.33,12.88-7.23,1.39-.02,2.01,1.94,3.94,1.74-1.6-1.17-1.92-2.69-2.83-5.41,3.91-1.42,18.21-.99,18.42,5.14.16,4.61-13.8,14.34-30.56,7.46Z"/>
              <path class="st61" d="M528.75,432.59c3.07,9.45-30.54,11.78-32.52,4.79-1.58-5.56,26.97-9.24,32.52-4.79Z"/>
              <path class="st128" d="M506.08,515.01c-1.89.03-4.58-.86-6.63.38-3,1.82-4.32,5.54-4.4,8.55-5.42-2.23-10.33-6.28-13.99-11.23,8.71-3.49,18.71-3.06,25.02,2.3Z"/>
              <path class="st76" d="M512.82,480.9c-.69-2.52-11.45,3.74-12.91,5.11-.46,5.5.51,10.86,3.02,15.13-4.16-.02-9.21-15.21-10.01-18.85,7.37-1.52,13.18-4.29,18.81-8.67,1.82,2.83.87,5.13,1.08,7.28Z"/>
            </g>
          </g>
          <g>
            <path class="st62" d="M547.77,319.37c.95,1.74.1,3.67-2.56,5.8l-1.36,2.66c13-4.88,26.91-1.76,37.75,6.57-.53-2.67-.04-4.47,1.46-5.38l2.82.37c14.89,18.57,20.03,45.05,20.01,68.58l.99,2.16c2.07-2.13,5.13-2.67,9.17-1.62l6.21,1.08c8.49,3.97,17.05,7.72,25.67,11.25,4.26,4.26,9.46,8.53,9.09,16.32l-6.89-5.14c-1.87-.2-3.65-1.36-5.35-3.48l-4.69-2.12c3.01,6.1,5.11,12.6,5.49,19.41.69,12.42-4.6,21.42-10.79,31.24.27.66.45,1.3.31,1.86-.85,3.36-7.35,9.52-10.17,12.16-18.36,17.17-55.05,36.88-79.47,43.01l-3.1-1.17c-.92.35-2.1,1.05-3.53,2.08-2.92,4.68-6.99,8.26-11.06,11.77-20.43,11.95-43.1,4.01-59.79-10.74l-.77,1.79-.22,1.35c-.66.51-1.33.98-2.07,1.32-8.51,3.99-46.32-7.54-56.73-11.24-27.38-9.71-65.92-36.69-57.69-70.05,2.04-8.25,7.18-17.9,15.85-19.98l.66-3.77c-1.38-1.72-1.38-3.17,0-4.36.99-2.72,4.88-2.15,4.83.94l2.48-.97,6.54,2.8c-6.2-18.45-8.78-40.14-2.35-58.86,2.54-7.39,10.76-21.73,18.2-24.5,1.04-.39,2.2-.02,3.22.35l1.14,1.84c-2.19,4.14-4.46,8.51-4.78,13.27,9.8-13.48,26.34-20.11,42.75-18.03l-3.13-2.46c-3.1-.97-4.74-2.48-4.94-4.54,1.47-4.85,10.51-.33,13.96,1.53,33.5,18.06,42.49,64.53,43.96,99.67l-1.76,3.48.54,1.25c-11.77,11.21,10.2,21.47,20.11,22.94l1.36,2.35c2.36,1.23,1,3.44-.28,5.31-10.49,15.34-44.46,13.41-53.15-4.09-1.62-3.27-2.95-6.66-.01-9.45-4.54,1.64-8.58,4.21-11.75,7.87,4.72,5.2,9.62,10.3,14.7,15.32,5.98,18.03,16.72,40.55,35.14,48.42,31.91,13.63,42.77-19.49,50.22-43.14,3.15-7.45,8.09-13.88,14.83-19.29,4.85-5.71,6.28-9.53,7.57-16.83,3.97.39,3.51-.21-1.38-1.78.93,2.55.77,5.56-2.39,5.39-5.66,15.41-26.68,28.92-41.53,17.77-2.18-1.63-5.45-4.29-3.03-6.66l.75-2.58c9.81-3.92,27.18-20.49,11.78-28.12l-.72-2.33-2.69-2.41c-7.44-29.73-12.02-76.82,9.42-101.51,1.86-2.15,8.79-7.11,11.11-4.68Z"/>
            <g>
              <path class="st51" d="M640.98,460.87c-3.3,7.93-7.83,15.31-14.2,22-25.08,26.34-55.82,41.61-90.78,50.6l3.91-7.48c-.33-1.39,1.11-3.08,2.46-3.06,28.81-8.29,75.14-30.96,92.42-55.87.83-2.61,3.74-9.28,6.19-6.19Z"/>
              <path class="st54" d="M650.13,422.02c-.9.18-2.58-.05-3.45,1.15,3.98,9.7,6.77,20.06,3.97,29.91-2.04-3-.18-5.85-3.01-8.49-1.3,6.31-4.48,11.04-6.65,16.27-3.11.22-4.5,3.76-6.19,6.19-.49.26-.73-.43-.5-.93,10.57-18.85,13.37-32.03,2.08-52.51,6.1.56,12.05,3.66,13.76,8.41Z"/>
              <path class="st100" d="M527.78,536.77c-3.04,2.61-5.55,5.64-10.16,7.09-21.62,6.8-36-5.47-50.4-16.05-.88-.65-1.37-1.94-2.04-2.37-.91-.58,1.32-2.83,1.89-2.41,6.49,4.8,12.24,9.72,19.62,13.09,11.98,5.48,25.12,5.93,37.36.9,1.38-.57,2.65-.85,3.74-.26Z"/>
              <path class="st47" d="M613.02,395.01c8.57-.05,17.27-1.67,25.96,2.54-3.09.14-5.88-.86-9.28,1.49,8.06,1.95,13.21,6.79,18.23,11.8-18.13.63-13.05-11.07-41.05-10.71-.18-1.42,1.27-2.83,1.23-4.16,1.68.19,3.28-.95,4.9-.96Z"/>
              <path class="st26" d="M542.37,522.92c-.28,1.31-1.92,2.03-2.46,3.06-.25-.43-.63-.76-1.07-.98,1.26-2.01,3.08-3.58,3.62-6.12,1.33,1.81.15,2.93-.09,4.04Z"/>
              <path class="st97" d="M431,330.94c5.24,2.03,10.17,4.56,12.39,10.06-18.33-4.5-35.75,2.4-46.2,17.16-.59.84-1.71,1.38-2.16,1.01-3.35-2.77,3.63-16.97,4.92-18.31,8.43-8.75,20.08-13.3,31.05-9.91Z"/>
              <path class="st9" d="M583.06,329.02c.18,2.74,1.8,5.35.03,9.16-12.07-10.42-27.07-14.06-41.79-7.11-.31-5.55,3.54-8.42,6.47-11.69,13.6-7.8,26.34-2,35.29,9.65Z"/>
              <path class="st110" d="M465,417c-.74,6.09-2.01,13.13-5.7,18.13l-1.41-.12c-.85-2.34-.44-4.94,1.24-7.79l1.91-10.43c-.54-3.8.11-6.76,1.94-8.87,2.48,2.1-.4,7,2.03,9.09Z"/>
              <g>
                <path d="M465,417l-1.14.44c-.04-3.25-.34-6.43-.89-9.53l-2.3-2.07c-2.48-17.3-15.75-37-35.2-29.86l-2.47-1.1c-13.62,8.83-16.13,27.08-12.62,41.97,1.91,8.11,6.65,18.53,14.58,21.13l.43-1.96c-15.54-12.64-13.87-47.09,7.39-52,24.77-5.73,33.09,31.41,23.83,48.35l1.29,2.63c.78-1,1.04-1.18,1.41.12l.84.67c.29.24,1.03.63.8.77-.45.29-1.49.85-1.97.82-13.16-.98-25.24,2.15-37.8,4.49-16.32-7.56-20.59-32.35-17.45-48.2-4.7-2.37-8.64-5.4-9.7-10.31,4.12,1.85,6.72,4.69,10.98,5.28,2.29-3.84,4.35-7.77,7.28-11.12,10.7-12.23,27.7-12.37,39.23-.81,10.57,10.61,14.52,25.57,13.49,40.27Z"/>
                <path class="st127" d="M462.97,407.91c.68,9.43-.36,18.83-5.08,27.09-1.54-.13-3.26.26-4.63-.68,9.32-14.83,5.7-44.28-12.26-48.4-8.91-2.04-17.64,3.38-21.22,11.77-5.28,12.38-2.72,27.19,5.85,37.25.81.95,2.25,1.06,1.44,2.68-.33.67-1.53-.03-2.14.35-20.18-11.05-21.97-50.25-1.96-63.1,9.18-4.44,19.69-2.83,27.36,4.94,7.52,7.63,11.4,17.74,12.62,28.09Z"/>
                <path class="st115" d="M422.99,374.88l-6.48,7.62c-5.51,6.48-11.49,38.15,5.91,51.92,1.47,1.16,2.66,1.88,2.53,3.56-1.96,1.24-4.22,1.24-6.08-.93-10.35-12.06-13.52-27.99-10.41-43.45,1.78-8.85,7.03-15.1,14.53-18.73Z"/>
                <circle class="st89" cx="443.49" cy="399.23" r="6.48"/>
              </g>
              <g>
                <path d="M588.62,421.41c-12.78.63-25.14,3.25-38.39,7.29-.85-.95.35-1.11.75-1.69,1.08-1.56-11.24-6.27-14.83-30.09-1.72-11.4-.23-22.78,6.61-32.04,5.33-7.21,13.87-11.29,22.64-9.19,6.94,1.66,11.8,6.68,16.16,11.96,2.75-1.51,3.92-3.98,6.31-5.71,1.22,3.93-1.27,6.65-4.31,9.47,7.6,15.11,8.32,32.4.28,47.71l4.78,2.29Z"/>
                <path class="st127" d="M572.39,418.33c7.33-12.82,6.82-28.71-3-39.68-4.34-4.85-10.91-6.48-17.02-5.13-5.37,1.19-10.65,4.69-14.04,10.41.49-6.42,3.07-12.71,7.69-17.85,8.12-9.04,20.94-8.46,29.14,1,10.97,12.66,12.97,31.79,6.19,47.23-1.75,3.99-5.32,5.51-8.96,4.02Z"/>
                <circle class="st22" cx="562.41" cy="385.42" r="6.35"/>
              </g>
            </g>
          </g>
        </g>
      </g>
    </g>
  </g>
  <g>
    <path class="st27" d="M191.5,131.48c13.08,10.55,19.35,27.42,16.34,43.96-3.01,16.54-14.83,30.11-30.8,35.36-15.97,5.26-33.53,1.37-45.78-10.14-17.99-16.9-19.39-44.99-3.19-63.6,16.21-18.61,44.23-21.08,63.43-5.58Z"/>
    <g>
      <circle class="st1" cx="162.69" cy="167.26" r="38.77"/>
      <circle class="st67" cx="162.79" cy="167.22" r="35.78"/>
      <path class="st72" d="M168.56,188.57c-4.65.98-1.98,4.33-4.79,5.77-.66.34-2.04.37-2.63-.21-.52-.52.16-3.29-.65-3.59-4.39-1.67-9.1-2.17-13.12-5.3.13-1.83,1.63-6.18,3.53-6.76,3.45.22,5.29,4,9.22,3.46.24-2.88,2.02-8.5-.36-10.8-3.12-3.03-8.1-3.56-10.27-7.74-1.95-3.76-1.9-8.05.5-11.79,1.95-3.03,5.39-6.02,10.04-6.38,1.41-1.34.64-3.92,1.94-4.72,1.27-.78,2.93-.15,3.38.5s.27,2.98,1.11,3.51c3.37,2.12,7.51,1.75,10.57,4.65-.37,2.39-1.64,4.62-3.06,6.46-2.81-1.36-4.82-3.01-7.89-3.21-.4,3.41-1.12,7.02.1,10.48,6.46,3.73,13.32,6.04,12.12,15.58-.6,4.76-4.17,8.91-9.75,10.09Z"/>
    </g>
  </g>
  <g>
    <path class="st18" d="M675.4,122.81c.9,9.56-2.33,18.8-6.36,27.29-9.91,14.76-26.63,22.69-45.07,18.47-12.1-2.77-24.48-10.79-29.82-22.58-7.02-15.49-4.43-34.36,6.5-47.21,11.68-13.72,29.61-17.81,46.75-12.07,14.96,5.01,26.46,19.53,28.01,36.11Z"/>
    <g>
      <circle class="st41" cx="632.92" cy="127.01" r="36.17"/>
      <circle class="st3" cx="632.74" cy="126.88" r="33.12"/>
      <path class="st83" d="M637.62,146.37c-4.83,1.22-2.02,5.41-3.45,6.28-.6.37-2.26.83-3.39.11s.42-4.26-1.24-5.09c-3.19-1.61-7.98-2.08-10.71-4.64-.58-1.55,1.29-5.62,3.15-5.87,2.73-.36,4.13,2.69,7.55,2.79.3-2.3,1.93-7.93-.43-9.82-3.28-2.63-8.06-3.15-9.97-7.4-1.76-3.93-.92-8,1.21-11.61,1.91-3.24,6.13-3.7,9.72-5.99.86-.55.4-3.06,1.02-3.61.7-.63,2.76-1.25,3.43-.08.74,1.3.02,3.87,1.63,4.57,3.35,1.46,6.88,1.7,9.56,4.06-.88,2.06-1.74,3.88-3.01,5.74-2.58-1.08-4.52-2.75-7.61-2.47.18,2.63-1.46,7.05.6,8.85,2.96,2.58,7.39,2.93,9.78,6.42,2.21,3.21,2.24,7.64.4,11.58-1.21,2.58-4.38,5.21-8.25,6.19Z"/>
    </g>
  </g>
  <g>
    <path class="st75" d="M921.59,386.53c11.53,7.55,18.4,20.46,18.22,34.24s-7.39,26.51-19.11,33.75c-15.37,9.5-35.19,7.6-48.48-4.64s-16.81-31.83-8.61-47.94c5.2-10.2,14.48-17.71,25.55-20.65,11.06-2.94,22.85-1.04,32.43,5.23Z"/>
    <g>
      <circle class="st69" cx="899.36" cy="420.42" r="34.33"/>
      <circle class="st70" cx="899.5" cy="420.42" r="31.36"/>
      <path class="st72" d="M900.8,444.25c-.87,1.52-2.3.84-3.07.66-1.18-.28-.17-2.97-1.09-3.73-2.73-2.24-8.18-2.58-10.73-5.26-.63-1.49,1.37-5.72,3.08-5.7,2.26.02,4.42,4.08,6.92,2.63,1.65-1.34,1.95-7.25.18-8.82-2.96-2.63-7.49-2.92-9.29-6.91-1.8-3.97-.98-7.54,1.33-11.34,1.8-2.95,5.62-4.27,9.42-6.02.51-.23.29-2.47.69-2.86.58-.56,1.88-.92,2.98-.42.68.31-.13,2.96.69,3.34l9.62,4.43c-.19,2.37-1.34,4.44-2.74,6.22-2.06-.8-3.2-2.19-6.21-2.7-.8,2.23-2.69,7.61-.38,8.96l7.62,4.46c3.57,2.09,3.53,7.28,2.21,11.27-1.27,3.84-4.62,6.41-9.22,7.39-1.66.35-1.08,2.74-2.02,4.39Z"/>
    </g>
  </g>
  <g>
    <path class="st91" d="M105.38,673.63c-14.17-6.12-22.87-20.6-21.62-35.99,1.25-15.39,12.18-28.27,27.16-32.01,15.24-3.81,31.19,2.7,39.42,16.08s6.83,30.56-3.46,42.43c-10.28,11.88-27.08,15.71-41.5,9.49Z"/>
    <g>
      <circle class="st109" cx="119.69" cy="640.53" r="30.52"/>
      <circle class="st20" cx="119.71" cy="640.39" r="27.65"/>
      <path class="st28" d="M130.85,652.22c-3.42,7.19-9.59,2.14-10.63,10.71-3.51.65-2.42-2.86-3.61-4.43-1.82-2.39-6.03-1.49-8.51-3.92-1.16-1.14.39-4.78,2.08-5.11,2.32-.45,3.42,1.99,6.24,2.46,5.3-13.45-9.05-7.3-9.21-18.52-.06-4.38,2.53-8.64,7.34-10.09,5.76-1.74,1.7-7.42,5.83-5.33.87.44.63,1.89.74,3.03.31,3.32,8.09,2.31,8.77,5.63.25,1.25-1.22,4.22-2.68,4.01-2.01-.28-3-2.04-5.44-2.09-.23,1.81-1.56,5.84.23,7.47,2.45,2.23,6.49,2.27,8.56,5.31,2.21,3.23,2.15,6.99.3,10.87Z"/>
    </g>
  </g>
  <g>
    <path class="st65" d="M774,266c.63-1.43,3.25-1.05,4,.23l13,3.64c20.28,5.68,33.22,26.85,35,48.13.74,8.92.43,17.91-3,26.11.1,3.18-2.08,7.21-4.14,9.88-12.03,17.36-29.98,28.11-51.46,27.47-19.89-.6-39.59-11.42-49.03-29.64-15.83-30.55-3.3-65.72,26.44-80.82,3.16-2.34,8.22-4.19,12.15-3.99,5.51-1.53,11.4-.87,17.04-1.01Z"/>
    <path class="st15" d="M756.96,267.01c-3.9,1.08-8.52,2.15-12.15,3.99-.49.15-.91-.17-.72-.75,1.68-.68,14.08-6.35,12.87-3.24Z"/>
    <path class="st15" d="M818.86,353.99l4.14-9.88c2.85-1.78-2.39,10.7-4.14,9.88Z"/>
    <g>
      <circle class="st64" cx="768.96" cy="323.95" r="48.6"/>
      <circle class="st23" cx="769.05" cy="323.88" r="45.35"/>
      <path class="st25" d="M772.65,351.58c-.65,1.09.01,4.23-.68,4.84-.99.88-2.95,1.42-4.53.65-1.18-.57-.76-3.38-1.07-5.03-5.22-1.52-11.42-2.72-16.07-6.24.64-3.14,2.13-5.9,3.95-8.42,4.25,1.23,6.86,4.35,12.15,4.91-.26-3.71,2.76-11.41-.53-13.44l-11.55-7.15c-4.34-2.69-4.4-9.44-2.33-15.04,3.07-8.31,13.8-10.12,14.45-10.79,1.17-1.21.69-3.16,1.09-5.01.34-1.56,4.03-1.73,4.99-.46,1.31,1.74.21,4.12,1.14,5.94,4.63,1.13,9.02,2.01,12.95,4.94-.94,2.18-1.93,6.03-4.05,7.26l-8.84-2.58c-.18,3.41-2.08,9.18.29,12.54,1.96,2.77,7.21,2.98,9.81,5.7,4.68,4.91,5.43,11.3,2.99,17.92-1.87,5.07-8.27,8.02-14.15,9.47Z"/>
    </g>
  </g>
  <g>
    <path class="st31" d="M546.75,148.1c.39.26.75.55,1,.91.42.63,1.06,14.66-2.27,13.67-5.6-2.27-16.55-6.14-13.24,3.73,8.51,12.04,15.25,25.84,16.41,40.77-9.44,11.51-15.23,24.47-20.27,38.26-14.71-4.42-29.08-5.97-44.22-2.12-2.59.1-2.8-1.51-2.61-3.91,3.88-6.73,6.01-14.04-4.26-12.03-17.53,3.44-34.89,24.21-43.89,38.84-2.23,2.6-11.45,5.19-15.02,5.22-9.9-18.09-22.06-34.42-36.49-49-2.23-17.68-.63-35.95,7.17-52.13.71-6.98-7.41-4.42-11.45-2.34-9.01,6.79-11.06,3.76-6.14-9.07.28-2.42-.45-4.15-3.17-4.29-10.09-.5-19.49,18.38-20.72,26.93l-2.8.91c-7.75-6.87-10.61-1.55-8.59,15.95-5.92,2.31-6.12,7.65-.6,16.04l8,12.71c-19.48,39.23-29.26,93.83,10.94,123.62,1.45,4.83-1.27,10.65-6.63,7.17-96.51-81.65-247.28-23.63-257.42,104.88-6.29,79.78,54.98,163.36,139.18,127.58,2.15-.76,3.3.24,4.21,2.13l-.6,34.16c-2.51,73.65,49.23,139.99,126.56,133.84,2.99-.48,3.54,1.36,3.99,4.09,1.66,13.56,5.32,26.72,10.98,39.5,1.1,2.56.36,3.56-1.65,4.98l-32.36,6.71-7.69,3.63c-2.72,2.76-5.44,4.34-8.17,4.75l-2.47,2.16c-18.49,1.57-37.35,3.6-55.72,7.4-5.64,1.17-29.28,6.18-30.54,12.33-1.17,5.69,23.6,11.17,27.91,12.07,35.59,7.41,72.8,9.76,108.91,11.89,2.36.93,5.08,1.33,8.17,1.22l.8.98c5.21-.71,10.46-1.31,15.73-1.18,99.89,2.43,200.88,4.79,297.47-11.73,6.26-1.27,30.02-6.35,31.7-12.5.32-1.18-.86-2.41-1.76-3.16-12.94-6.41-26.93-10.52-41.96-12.33l-.96-2.27-1.57-1.54,22.83-63.3,2.09-2.2,64.94.04c1.91.02,2.87,1.25,3.11,3.08l-4.83,63.45c1.48,11.29,16.63,11.89,19.35.94,1.52-22.33,3.58-44.56,6.16-66.7l2.18-.96,64.82-.02,2.66,2.03,26.41,81.8c6.65,9.99,20.95,4.73,18.64-7.72l-24.28-73c.05-1.63,1.07-2.53,2.6-3l51.77-.65c9.73-4.89,8.42-18.64-1.66-23.29,2.16-32.35,4.9-64.67,8.22-96.99l2.13-1.06c1,3.21-.84,7.36.47,10.81,5.32,13.95,8.67,27.23,10.61,42.32,7.22,56-6.47,113.01-40.21,158.59-32.48,43.87-79.63,74.37-132.49,87.52-57.58,14.32-121.39,7.13-176.1-14.16l-40.49-15.76c-43.67-16.99-89.96-21.25-136.14-12.94-17.97,3.23-34.53,7.5-52.14,12.06-49.02,12.69-93.47,18.68-143.67,7.98-41-8.74-76.61-30.56-102.56-63.6-23.16-29.48-36.97-65.2-39.89-102.72-2.06-26.49,2.58-51.37,10.18-76.47l2.71-1.08c55.95,14.22,62.65-70.54,5.29-65.41l-2.45-1.51-22.82-32.82c-23.89-33.99-29.9-76.35-16.05-115.72,4.76-13.53,10.71-25.82,18.15-38.02,20.02-32.86,5.46-55.2,4.71-95.18-.79-42.22,10.98-83.21,32.83-119.01,1.06-1.74,2.05-2.76,3.52-4.23l3.16.14c45.75,34.88,98.42-26.09,57.57-66.28l-.49-3.04c18.08-14.5,37.83-24.89,59.39-32.71,69.14-25.08,144.96-15.9,209.67,17.36,27.4,14.08,56.08,29.65,86.19,31.98Z"/>
    <path class="st80" d="M508.77,819.25l-1.75,5.55c-9.37,29.68,49.13,16.24,77.02,26.13,10.52,3.73,20.51,2.29,31,.22,7.78-1.54,15.7-2.46,20.34-9.88,3.34-5.34,2.24-11.57.81-17.32.17-.76.51-1.88,1.08-1.91,3.06-.12,10.54.73,13.77,1.33,3.23-.33,5.18.53,5.84,2.57l-3.11,9.92c-2.17,6.91,1.04,13.56,7.34,15.54,15.68,4.94,16.17-15.04,21.11-22.32,7.38,1.84,46.85,7.33,46.71,17.42-.02,1.45-.84,3.04-2.26,4.14-18.83,14.55-105.93,20.31-132.84,21.62-70.96,3.47-141.47,4.02-211.83-.01-.83-1.08.01-1.17,1.18-.94.82.16-16.07.9-11.41-5.23-2.14-1.32-4.4-2.5-6.77-3.54l-.7-1.49,7.71-.97c11.05-.83,21.88-3.63,32-9.18,13.52-7.41,22.54-2.89,36.98-8.77,6.21-2.52,9.72-8.36,7.76-15.16-.77-2.68-.94-5.69-1.76-7.97l.93-2c19.88.08,39.77.16,59.67.24l1.18,2Z"/>
    <path class="st88" d="M324.94,824.2c-5.15,7.13-6.12,18.79-.59,25.24,6.44,7.51,16.13,7.11,24.62,8.33,7.85,1.13,15.13,3.64,23.03,2.29-1.91.14-4.52,1.51-6.99,1.38,3.32.8,7.64,1.01,8.65,4.21.3.94-1.59,3.79.38,3.99,3.69.38,7.17-.15,10,1.9l-2.05.69c-17.2.32-147.81-8.02-147.8-25.74,0-14.43,78.43-21.66,90.75-22.3Z"/>
    <path class="st99" d="M628.8,732.92c-4.06,4.55-5.53,11.23-3.26,17.82,1.55,4.49,5.34,12.51,11.7,12.62l42.34.73-22.7,61.85-20.69-1.99c-3.35-3.94-6.23-8.39-11.26-10.99-13.48-6.95-27.98-9.65-43.07-10.54,12.27-18.48,18-39.24,15.35-60.5-1.76-14.13-8.71-25.75-15.17-38.11-1-4.29,1.41-9.82,1.71-13.81,1.4-6.64,1.97-14.09,1.72-22.37,5.59-4.48,8,2.01,8.67,7.17,3.89,6.9,8.54,13.37,13.96,19.43l3.53,6.69c7.04,7.67,13.86,15.64,20.46,23.94.8,2.99-.29,5.68-3.28,8.06Z"/>
    <path class="st96" d="M628.8,732.92c-1.47-1.43.07-2.68,1.37-4.14,2.16-2.42-1.48-4.49-2.88-6.13-3.5-4.11-7.17-8.19-10.02-12.72-1.76-2.8-3.33-4.32-5.9-6.38-2.92-2.34-3.49-7.12-6.15-9.73-2.81-2.75-4.45-6.2-6.98-8.99-10.45-11.53-4.23-15.77-9.92-16.76-4.35-.76-1.55,10.41-2.32,15.53-.48,3.21-1.29,5.93-1.11,9.48-1.47-.85-.77-2.12-1.15-3.09,1.8-24.05-.14-48.02-7.16-72.47,45.7,7.5,46.55,1.81,74.98-31.45l-12.35,144.01c-4.15.82-7.48,1.04-10.42,2.83Z"/>
    <path class="st108" d="M508.77,819.25l-61.78-.25c-5.02-14,1.34-29.71,15.21-37.1,10.61-5.65,23.29-10.05,35.88-9.53,7.96,4.09,13.67,15.64,14.83,24.4,1.11,8.41-1.94,15.53-4.13,22.49Z"/>
  </g>
  <g>
    <path class="st58" d="M594.15,145.98l2.69.94c14.95,25.09,51.85,28.47,69.26,3.88l2.94-.69c2.09-2.99,4.05-3.8,5.88-2.44,1.18,9.67,3.25,11.65,12.71,14.59,2.72,4.48,5.72,8.72,9.01,12.71,11.41,3.51,18.72,11.83,26.04,20.84,8.43-.17,13.05,3.9,17.75,10.47,7.37,4.2,13.17,10.34,17.37,18.44l5.64,3.15c6.21,6.7,12.63,13.27,19.26,19.73,6.62,3.36,13.05,7.06,19.29,11.09l1.13,7.88c3.51,3.67,4.28,6.99,2.32,9.95-4.68-3.27-9.5-5.49-14.44-6.66-1.7,1.74-4.55,1.64-8.54-.31-2.84-.21-4.32-1.31-4.46-3.32-.66-.74,0-1.03,1.98-.86-2.67-.33-4.66-.12-5.98.63-2.08,2.09-5.36,2.76-9.85,2.01-3.09.82-5.49.48-7.19-1.01-3.94-.32-9.8,2.02-12.15,3.99-1.11,2.78-3.41,4.94-6.91,6.5-68.41,56.07,21.07,146.07,77.69,77.61l3.28-1.13c2.03-2.66,4.25-6.67,4.14-9.88l-1.03-2.91c2.27-6.64,2.64-13.69,2.21-20.65l1.82-2.55.76-1.14c-3.87-16.32,10.47-10.06,14.61-.37,1.04,7.04,2.69,13.93,4.95,20.69,4.12,2.52,6.92,6.6,8.4,12.25,2.98,2.09,6.24,3.95,9.79,5.59,6.5,6.25,13.45,11.87,20.86,16.87-.19,3.24-.04,6.46.45,9.65-9.15,3.8-19.03,10.83-22.22,20.43l.83,2.92c-14.13,33.57,20.86,65.9,53.24,49.09l3.02.56c1.67,11.02,5.48,21.07,11.67,30.35,4.96.57,9.4-.79,13.68,1.13l-16.15-.28-93.95-.04c-.03-7.01-4.41-14.93-11.95-15.24-12.02-.49-23.95-.68-35.9.19-6.74.49-8.22,8.75-8.05,14.09-7.39.92-17.04,1.66-24.52.47-.16-.03.91-2.09,1.56-2.89l13.6-.47c4.94-.1,6.64-1.52,5.1-4.26-7.4-2.62-14.9-5.06-22.52-7.34-4.52-1.78-7.63-5.2-9.33-10.27l-5.66-1.72c-4.97-3.73-9.82-7.7-14.54-11.9-2.85-8.9-9.68-15.3-20.49-19.19-3.96-4.31-3.39-13.51-2.96-18.87-3.08-3.63-5.92-7.36-8.52-11.18.37-2.89-.83-5.64-3.62-8.24-.07-4.22-.43-8.36-1.08-12.43-5.85-4.65-10.17-10.66-12.97-18.03,2.35-8.47,2.26-9.76-.26-3.87-3.14,2.19-5.84.43-8.09-5.28l-1.57-1.6c-11.06-2.21-17.2-11.81-19.68-22.43-7.53-1.84-12.2-7.66-14.01-17.44-2.95-6.27-7-8.41-13.39-10.79-2.53,2.92-3.78,1.35-3.32-2,3.73-31.62-6.64-60.94-27.14-86.19,4.09-7.03,13.15-25.5,6.47-31.38-1.58-1.39-4.1-1.33-6.94-.82-.41-3.88-2.11-25.48-10.75-21.1-2.44,1.23-3.72,3.82-4.87,6.47-2.47-4.98-5.17-10.41-9.55-14.07,11.08.06,22.18-.34,33.15-1.93Z"/>
    <path class="st15" d="M735,112.76c5.95-.67,12.03-.63,18-.03,56.11-.08,114.11,32.87,146.63,79.43,33.8,48.39,44.23,108.69,29.08,165.56-2.64,9.9-4.79,18.84-7.12,28.8l-3.01.5c-18.28-10.47-41.62-4.18-52.18,13.99l-2.79.94c-3.3-3.07,14.62-19.82,20.51-20-.79-3.49-1.54-5.96-.19-9.33-9.22-3.42-17.66-15.39-23.45-17.7-3.31-1.31-6.88-2.27-8.24-6.08-6.1-17.08-6.11-1.53-9.63-17.5-.97-4.4-2.85-8.16-2.89-13.19-.01-1.69-2.41-4.98-3.58-6.17-1.73-1.75-4.68-1.81-6.49-4.28-6.28,9.02.97,5.59-1.89,21.31-1.92.36.54-11.88-1.75-11.03l-2.23-2.12c-2.38-18.57-12.97-36.86-31.2-43.43l-1.57-2.58c-1.06-3.44,12.06,5.72,13.49,5.46,1.43-7.1-4.43-2.04-4.08-15.73l-18.92-10.41-8.54-8.37c-1.88-1.84-2.88-4.74-5.95-5.97-2.52-1.01-3.78-5.61-6.25-6.32-4.83-1.4-5.52-3.86-7.82-7.63-1.41-2.31-3.69-4.29-5.1-7.04-1.66-3.23-7.3-3.91-9.62-7.03-12.21-16.43-13.35-1.9-20.44-13.9-1.91-3.24-5.92-5.22-8.33-8.34-7.04-9.12-11.36-1.35-18.87-14.1l-3.28-5.56c-1.77-3-6.02-2.6-8.75-4.12-4.17-2.33-4.83-7.72-4.85-12.08-2.91-.35-3.14,2.07-4.67,1.39l-.91-2.8c3.18-7,5.6-14.48,5.41-22.23l1.86-2.26c19.38-5.61,39.38-10.02,59.6-10.05Z"/>
    <path class="st58" d="M753,112.73l-18,.03c-3.48-1.15,21.45-1.13,18-.03Z"/>
    <path class="st38" d="M780.05,484.73c.03.88-.67,1.35-2.07,1.35l-86.92-.02c-1.11,0-2.13-.58-2.08-1.15.48-1.28,3-.85,4.29-.41.2.07-3.73.11-3.38-1.59,3.49-9.7,9.17-30.43-5.06-34.18-6.03-1.59-12.01,1.3-14.42,6.91l-12.65,29.41c-1.63,3.78-16.82,6.72-14.3,36.38l-42.01,26.71-42.12-14.92c35.93-13.01,69.96-34.69,88.15-67.44,10.59,6.35,11.77-25.03,10.97-29.85,1.52-.59,2.68-.36,3.55-.88,5.3-3.19,1.64-19.84-8.5-28.5-3.09-2.63-3.2-5.79-2.62-9.58-7.8-7.28-19.93-9.69-31.2-9.59-1.23-18.47-6.21-35.81-13.54-52.37-1.05-3.27-2.08-6.51-3.09-9.71l6.94-14.08c2.06-1.24,2.63-5.79,2.16-8.21.65-2.46,1.33-5.53,1.62-8,.32.65-.11,1.6.61,2.21,1.22-1.44,1.52-2.15,2.29-2.55,1.01-.54,1.41.97,2.51,1.28,19.87,5.67,10.92,25.19,24.48,26.87,5.74.71,1.84,9.06,9.74,15.94,1.48,1.29,2.6,4.71,4.91,4.98,10.12,1.19,9.27,6.29,12.58,10.17,1.41,1.66,2.06-3.77,3.27-4.48,1.02-.6,3.9-1.06,3.96.35.14,3.27-1.52,5.2-2.18,8.36,3.07,3.84,4.14,9.75,7.86,12.96,2.17,1.88,4.2,2.04,5.39,5.25,1.44,3.88.03,7.91.67,11.33.51,2.68,5.08,3.86,3.87,8.48-.92,3.51,11.2,8.69,8.36,15.58-1.07,2.61.87,13.76,3.29,14.6,6.56,2.27,20.58,11.05,20.02,19.18,2.13,1.93,5.35,2.93,6.89,5.1,7.27,10.26,12.13,3.26,14.74,10.92,1.52,4.48,4.54,6.21,8.46,7.33l9.74,2.79c3.79,1.09,6.28,3.52,10.64,3.84,2.41.18,3.34,5.68,1.29,6.66-6.96,3.32-13.91.77-21.23,2.41,8.02.91,16.09.42,24.11.17Z"/>
    <path class="st15" d="M778,266.23c-1.04-.29-2.9-.26-4-.23-1.94-2.53-5.47.25-9.01-1.6,5.01-1.06,10.08-.36,14.98.97l-1.98.86Z"/>
  </g>
</svg>