<?xml version="1.0" encoding="UTF-8"?>
<svg id="Camada_1" xmlns="http://www.w3.org/2000/svg" version="1.1" viewBox="0 0 6000 3000">
  <!-- Generator: Adobe Illustrator 30.2.1, SVG Export Plug-In . SVG Version: 2.1.1 Build 1)  -->
  <defs>
    <style>
      .st0 {
        fill: #fff;
      }
    </style>
  </defs>
  <g>
    <path class="st0" d="M589.09,1035.46c-24.71,261.26-319.79,437.66-567.72,455.87,4.24-181.8-8.15-355.72,5.33-535.09,12.24-162.84,161.36-280.56,318.47-253.81,159.65,27.19,258.87,175.02,243.92,333.03Z"/>
    <path class="st0" d="M543.39,2168.1c-76.62,120.72-214.92,162.45-336.12,119.01-128.54-46.07-190.28-167.54-188.89-307.69l4.52-453.52c196.63,8.59,381.91,97.32,497.11,255.01,83.15,113.82,100.29,266.01,23.38,387.2h0Z"/>
    <g>
      <path class="st0" d="M1249.25,1201.47c-228.78,322.29-688.02,278.79-701.65,248.3-3.71-8.31-5.42-28.32,3.73-37.86,124.45-129.82,175.06-294.13,199.11-468.12,16.6-120.09,109.1-212.14,209.26-237.57,122.49-31.1,239.45,20.99,307.45,123.49,75.82,114.29,62.75,258.13-17.91,371.76h.01Z"/>
      <path class="st0" d="M1314.87,1985.1c15.95,165.59-97.89,298.22-248.47,318.6-150.83,20.42-298.55-88.58-321.4-248.67-25.01-175.22-75.99-339.99-200.49-469.88-8.37-8.74-4.24-29.41-.39-35.7,4.28-6.98,17.86-7.88,32.18-9.33,235.27-23.8,461.64,48.9,626.99,216.18,60.26,60.96,102.63,135.82,111.59,228.8h-.01Z"/>
    </g>
  </g>
  <g>
    <path class="st0" d="M1573.81,697.41c21.26,0,41.1,3.9,59.54,11.7,18.43,7.81,34.72,18.44,48.91,31.9,14.17,14.19,25.52,30.49,34.02,48.91,7.79,18.44,11.7,38.28,11.7,59.54s-3.9,42.18-11.7,60.6c-8.5,19.14-19.85,35.81-34.02,49.97-14.19,14.19-30.49,25.17-48.91,32.96-18.44,8.51-38.28,12.76-59.54,12.76s-41.12-4.25-59.54-12.76c-19.14-7.79-35.81-18.77-49.97-32.96-14.19-14.17-25.17-30.83-32.96-49.97-8.51-18.42-12.76-38.63-12.76-60.6s4.25-41.1,12.76-59.54c7.79-18.43,18.77-34.72,32.96-48.91,14.17-13.45,30.83-24.09,49.97-31.9l59.54-11.7ZM1710.97,2156.19c0,24.81-3.9,46.43-11.7,64.85-7.81,18.43-18.07,33.68-30.83,45.72-12.76,12.06-27.3,21.25-43.59,27.64-17.02,6.38-34.03,9.56-51.04,9.56s-34.74-3.19-51.04-9.56c-16.32-6.39-30.83-15.59-43.59-27.64-12.76-12.04-23.04-27.29-30.83-45.72-7.81-18.42-11.7-40.04-11.7-64.85v-943.1c0-24.09,3.89-45.72,11.7-64.85,7.79-18.43,18.07-33.66,30.83-45.72,12.76-12.04,27.28-21.26,43.59-27.64,16.3-6.38,33.31-9.56,51.04-9.56s34.02,3.19,51.04,9.56c16.3,6.38,30.83,15.6,43.59,27.64,12.76,12.06,23.03,27.3,30.83,45.72,7.79,19.14,11.7,40.76,11.7,64.85v943.1Z"/>
    <path class="st0" d="M2376.57,1815.94l276.42-654.95c14.2-33.31,33.33-57.42,57.44-72.31,24.09-14.17,48.53-21.26,73.35-21.26,17.71,0,34.72,3.19,51.04,9.56,16.3,6.38,30.82,15.25,43.6,26.58,12.75,12.06,23.03,26.23,30.82,42.53,7.79,17.02,11.69,35.81,11.69,56.36,0,19.14-4.96,40.76-14.88,64.85l-402.96,957.98c-11.36,26.24-29.07,45.72-53.16,58.48-24.12,13.47-48.56,20.21-73.35,20.21s-49.29-6.73-73.38-20.21c-24.09-12.75-41.83-32.24-53.16-58.48l-405.09-957.98c-8.51-25.52-12.76-47.13-12.76-64.85,0-20.55,3.88-39.34,11.7-56.36,7.79-16.3,18.07-30.46,30.83-42.53,12.76-11.33,27.64-20.2,44.65-26.58,16.3-6.38,32.97-9.56,49.97-9.56,24.8,0,48.91,7.09,72.29,21.26,23.41,14.88,42.89,38.99,58.5,72.31l276.44,654.95h0Z"/>
    <path class="st0" d="M4101.13,2156.19c0,24.81-3.9,46.43-11.69,64.85-7.81,18.43-18.08,33.68-30.83,45.72-13.47,12.06-28.37,21.25-44.66,27.64-16.31,6.38-32.96,9.56-49.97,9.56-30.48,0-58.84-9.92-85.06-29.77-26.23-19.14-42.89-47.85-49.97-86.12-48.9,34.02-102.06,61.66-159.48,82.93-58.14,21.98-118.74,32.96-181.82,32.96-84.36,0-163.74-16.3-238.17-48.91-75.14-31.9-140.35-75.83-195.64-131.85-56-55.29-99.94-120.48-131.83-195.64-32.62-74.42-48.91-153.79-48.91-238.16,0-56.71,7.44-111.27,22.33-163.74,14.17-51.73,34.72-100.29,61.66-145.67,26.92-45.35,59.17-86.82,96.75-124.4s79.04-69.81,124.41-96.75c45.36-26.21,94.25-46.78,146.72-61.66,51.73-14.17,105.96-21.27,162.68-21.27,63.08,0,123.68,9.22,181.82,27.64,57.41,18.44,110.58,43.96,159.48,76.56,7.08-38.28,23.75-66.99,49.97-86.12,26.21-19.14,54.58-28.71,85.06-28.71,17.02,0,33.67,3.19,49.97,9.56,16.3,6.38,31.19,15.6,44.66,27.64,12.75,12.06,23.03,27.3,30.83,45.72,7.79,19.14,11.69,40.76,11.69,64.85v943.14h0ZM3487.64,1350.24c-46.08,0-89.68,8.87-130.78,26.58-41.83,17.73-77.97,41.83-108.45,72.3-31.2,31.2-55.64,67.35-73.35,108.45-18.45,41.12-27.64,85.06-27.64,131.85s9.2,90.74,27.64,131.85c17.71,41.11,42.15,76.91,73.35,107.38,30.48,31.2,66.62,55.66,108.45,73.37,41.11,18.45,84.7,27.64,130.78,27.64s90.73-9.2,131.85-27.64c41.09-17.71,77.25-42.17,108.45-73.37s54.57-66.27,72.29-107.38c17.71-41.11,26.58-85.06,26.58-131.85s-8.87-90.73-26.58-131.85c-17.73-41.11-41.83-77.25-72.29-108.45-31.2-30.46-67.36-54.57-108.45-72.3l-131.85-26.58Z"/>
    <path class="st0" d="M4479.64,2156.19c0,24.81-3.91,46.43-11.7,64.85-7.81,18.43-18.07,33.68-30.83,45.72-12.75,12.06-27.29,21.25-43.59,27.64-16.32,6.38-33.33,9.56-51.04,9.56s-33.68-3.19-49.97-9.56c-17.02-6.39-31.9-15.59-44.66-27.64-12.75-12.04-23.04-27.29-30.83-45.72-7.81-18.42-11.69-40.04-11.69-64.85v-943.1c0-24.09,3.88-45.72,11.69-64.85,7.79-18.43,18.08-33.66,30.83-45.72,12.77-12.04,27.64-21.26,44.66-27.64,16.3-6.38,32.96-9.56,49.97-9.56,22.67,0,44.65,5.68,65.92,17.01,21.27,11.34,38.63,28.01,52.1,49.97,28.34-16.3,60.23-29.05,95.7-38.27,34.72-9.2,71.58-13.82,110.58-13.82,14.17,0,27.28.36,39.33,1.06,11.34,1.43,23.73,3.9,37.21,7.44,21.27,4.26,39.69,10.63,55.29,19.14,15.59,9.22,28.71,19.85,39.35,31.9,9.92,12.76,17.36,26.23,22.33,40.4,4.95,14.19,7.44,28.71,7.44,43.59,0,17.73-2.85,34.74-8.52,51.04-6.38,16.32-15.59,30.83-27.64,43.59-12.06,12.76-26.57,23.04-43.59,30.83-17.73,7.81-37.58,11.7-59.54,11.7-4.97,0-9.93-.35-14.89-1.06-4.96-.7-10.29-1.76-15.94-3.19-5.68,0-11.01-.35-15.95-1.06-4.97-.7-9.93-1.07-14.88-1.07-35.46,0-64.87,9.57-88.26,28.71-24.1,19.85-43.24,43.95-57.41,72.29-14.88,29.07-25.52,60.26-31.9,93.57-6.38,33.33-9.56,64.16-9.56,92.5v514.61h-.01Z"/>
    <path class="st0" d="M5982,2156.19c0,24.81-3.9,46.43-11.69,64.85-7.81,18.43-18.08,33.68-30.83,45.72-13.47,12.06-28.37,21.25-44.66,27.64-16.31,6.38-32.96,9.56-49.97,9.56-30.48,0-58.84-9.92-85.06-29.77-26.23-19.14-42.89-47.85-49.97-86.12-48.9,34.02-102.06,61.66-159.48,82.93-58.14,21.98-118.74,32.96-181.82,32.96-84.36,0-163.74-16.3-238.17-48.91-75.14-31.9-140.35-75.83-195.64-131.85-56-55.29-99.94-120.48-131.83-195.64-32.62-74.42-48.91-153.79-48.91-238.16,0-56.71,7.44-111.27,22.33-163.74,14.17-51.73,34.72-100.29,61.66-145.67,26.92-45.35,59.17-86.82,96.75-124.4s79.04-69.81,124.41-96.75c45.36-26.21,94.25-46.78,146.72-61.66,51.73-14.17,105.96-21.27,162.68-21.27,63.08,0,123.68,9.22,181.82,27.64,57.41,18.44,110.58,43.96,159.48,76.56,7.08-38.28,23.75-66.99,49.97-86.12,26.21-19.14,54.58-28.71,85.06-28.71,17.02,0,33.67,3.19,49.97,9.56,16.3,6.38,31.19,15.6,44.66,27.64,12.75,12.06,23.03,27.3,30.83,45.72,7.79,19.14,11.69,40.76,11.69,64.85v943.14h0ZM5368.51,1350.24c-46.08,0-89.68,8.87-130.78,26.58-41.83,17.73-77.97,41.83-108.45,72.3-31.2,31.2-55.64,67.35-73.35,108.45-18.45,41.12-27.64,85.06-27.64,131.85s9.2,90.74,27.64,131.85c17.71,41.11,42.15,76.91,73.35,107.38,30.48,31.2,66.62,55.66,108.45,73.37,41.11,18.45,84.7,27.64,130.78,27.64s90.73-9.2,131.85-27.64c41.09-17.71,77.25-42.17,108.45-73.37,30.46-30.46,54.57-66.27,72.29-107.38,17.71-41.11,26.58-85.06,26.58-131.85s-8.87-90.73-26.58-131.85c-17.73-41.11-41.83-77.25-72.29-108.45-31.2-30.46-67.36-54.57-108.45-72.3l-131.85-26.58Z"/>
  </g>
</svg>