<?xml version="1.0" encoding="UTF-8"?>
<svg id="Camada_1" xmlns="http://www.w3.org/2000/svg" version="1.1" viewBox="0 0 6000 3000">
  <!-- Generator: Adobe Illustrator 30.2.1, SVG Export Plug-In . SVG Version: 2.1.1 Build 1)  -->
  <defs>
    <style>
      .st0 {
        fill: #fff;
      }
    </style>
  </defs>
  <g>
    <path class="st0" d="M1503.73,1010.01c0-18.42,2.97-34.68,8.94-48.78,5.95-14.09,13.82-25.74,23.58-34.96,9.76-9.21,21.14-16.26,34.14-21.14,12.46-4.33,25.2-6.51,38.21-6.51s26.55,2.17,39.02,6.51c12.46,4.88,23.58,11.93,33.33,21.14,9.76,9.22,17.61,20.87,23.58,34.96,5.95,14.1,8.94,30.36,8.94,48.78v347.95l469.9-426c11.38-10.83,23.84-18.97,37.39-24.39,13.01-4.88,25.47-7.32,37.4-7.32,14.63,0,28.46,2.72,41.46,8.13,12.46,5.97,23.58,13.55,33.33,22.76,9.21,9.76,16.53,20.87,21.95,33.33,5.41,13.01,8.13,26.57,8.13,40.65s-2.72,27.92-8.13,41.46c-5.97,14.1-16.54,27.92-31.71,41.46l-409.74,371.54,464.21,491.04c11.92,12.47,20.59,25.2,26.02,38.2,4.88,13.01,7.31,26.3,7.31,39.84s-2.71,27.38-8.13,39.84c-5.97,13.01-13.55,24.13-22.77,33.34-9.22,9.22-20.05,16.53-32.52,21.95-13.01,5.41-26.29,8.13-39.83,8.13s-27.64-2.98-40.65-8.94c-13.55-5.96-27.11-15.72-40.65-29.27l-512.99-539.81v463.4c0,18.98-2.99,35.5-8.94,49.59-5.97,14.11-13.82,25.75-23.58,34.96-9.75,9.22-20.87,16.26-33.33,21.14-12.47,4.88-25.48,7.31-39.02,7.31s-25.75-2.44-38.21-7.31c-13.01-4.88-24.39-11.92-34.14-21.14-9.76-9.21-17.62-20.86-23.58-34.96-5.97-14.08-8.94-30.61-8.94-49.59v-1007.28Z"/>
    <path class="st0" d="M2609.38,898.63c16.26,0,31.43,2.98,45.53,8.94,14.09,5.97,26.55,14.1,37.4,24.39,10.83,10.85,19.51,23.31,26.01,37.4,5.96,14.1,8.94,29.27,8.94,45.53s-2.98,32.25-8.94,46.34c-6.5,14.64-15.18,27.38-26.01,38.21-10.85,10.85-23.31,19.25-37.4,25.2-14.1,6.51-29.27,9.76-45.53,9.76s-31.44-3.25-45.53-9.76c-14.64-5.95-27.38-14.35-38.21-25.2-10.85-10.83-19.25-23.58-25.2-38.21-6.51-14.08-9.76-29.53-9.76-46.34s3.25-31.43,9.76-45.53c5.95-14.09,14.35-26.55,25.2-37.4,10.83-10.29,23.58-18.42,38.21-24.39l45.53-8.94ZM2714.26,2014.04c0,18.97-2.98,35.5-8.94,49.59-5.97,14.1-13.82,25.75-23.58,34.96-9.76,9.22-20.87,16.25-33.33,21.14-13.01,4.88-26.02,7.31-39.02,7.31s-26.56-2.44-39.02-7.31c-12.48-4.89-23.58-11.92-33.33-21.14-9.76-9.21-17.62-20.87-23.58-34.96-5.97-14.08-8.94-30.62-8.94-49.59v-721.12c0-18.42,2.97-34.96,8.94-49.59,5.96-14.09,13.82-25.74,23.58-34.96,9.76-9.21,20.86-16.26,33.33-21.14,12.46-4.88,25.47-7.31,39.02-7.31s26.01,2.44,39.02,7.31c12.46,4.88,23.58,11.93,33.33,21.14,9.76,9.22,17.61,20.87,23.58,34.96,5.96,14.63,8.94,31.17,8.94,49.59v721.12Z"/>
    <path class="st0" d="M3223.19,1753.88l211.35-500.79c10.86-25.47,25.48-43.91,43.92-55.29,18.42-10.83,37.11-16.26,56.09-16.26,13.54,0,26.54,2.44,39.02,7.31,12.46,4.88,23.56,11.66,33.34,20.32,9.75,9.22,17.61,20.06,23.56,32.52,5.96,13.01,8.94,27.38,8.94,43.09,0,14.63-3.79,31.17-11.38,49.59l-308.11,732.49c-8.69,20.06-22.23,34.96-40.65,44.71-18.44,10.3-37.13,15.45-56.09,15.45s-37.69-5.15-56.11-15.45c-18.42-9.75-31.98-24.65-40.65-44.71l-309.74-732.49c-6.51-19.51-9.76-36.03-9.76-49.59,0-15.72,2.97-30.08,8.94-43.09,5.95-12.46,13.82-23.29,23.58-32.52,9.76-8.66,21.14-15.44,34.14-20.32,12.46-4.88,25.21-7.31,38.21-7.31,18.96,0,37.4,5.42,55.28,16.26,17.9,11.38,32.79,29.82,44.73,55.29l211.38,500.79Z"/>
    <path class="st0" d="M4541.84,2014.04c0,18.97-2.98,35.5-8.94,49.59-5.97,14.1-13.82,25.75-23.58,34.96-10.3,9.22-21.69,16.25-34.15,21.14-12.47,4.88-25.2,7.31-38.21,7.31-23.3,0-44.99-7.58-65.04-22.76-20.05-14.64-32.79-36.59-38.21-65.85-37.39,26.01-78.04,47.15-121.94,63.41-44.45,16.8-90.79,25.2-139.02,25.2-64.51,0-125.2-12.46-182.11-37.4-57.45-24.39-107.31-57.98-149.59-100.81-42.82-42.28-76.41-92.12-100.8-149.59-24.94-56.9-37.4-117.6-37.4-182.1,0-43.36,5.69-85.08,17.07-125.2,10.83-39.56,26.54-76.68,47.15-111.38,20.59-34.68,45.24-66.38,73.98-95.12,28.72-28.72,60.43-53.38,95.12-73.98,34.68-20.04,72.07-35.77,112.19-47.15,39.56-10.83,81.02-16.26,124.39-16.26,48.23,0,94.57,7.05,139.02,21.14,43.9,14.1,84.55,33.61,121.94,58.54,5.42-29.27,18.16-51.22,38.21-65.85,20.04-14.64,41.73-21.95,65.04-21.95,13.01,0,25.74,2.44,38.21,7.31,12.46,4.88,23.85,11.93,34.15,21.14,9.75,9.22,17.61,20.87,23.58,34.96,5.96,14.63,8.94,31.17,8.94,49.59v721.12ZM4072.75,1397.8c-35.23,0-68.57,6.78-100,20.32-31.98,13.56-59.62,31.99-82.92,55.28-23.86,23.86-42.55,51.49-56.09,82.92-14.11,31.44-21.14,65.04-21.14,100.81s7.03,69.38,21.14,100.81c13.54,31.43,32.23,58.81,56.09,82.1,23.3,23.86,50.94,42.56,82.92,56.1,31.43,14.11,64.77,21.14,100,21.14s69.37-7.03,100.81-21.14c31.42-13.54,59.07-32.24,82.92-56.1,23.29-23.29,41.72-50.67,55.28-82.1,13.54-31.43,20.32-65.04,20.32-100.81s-6.78-69.37-20.32-100.81c-13.55-31.43-31.98-59.07-55.28-82.92-23.86-23.29-51.51-41.72-82.92-55.28l-100.81-20.32Z"/>
    <path class="st0" d="M4831.26,2014.04c0,18.97-2.99,35.5-8.95,49.59-5.97,14.1-13.81,25.75-23.58,34.96-9.75,9.22-20.87,16.25-33.33,21.14-12.48,4.88-25.48,7.31-39.02,7.31s-25.75-2.44-38.21-7.31c-13.01-4.89-24.39-11.92-34.15-21.14-9.75-9.21-17.62-20.87-23.58-34.96-5.97-14.08-8.94-30.62-8.94-49.59v-721.12c0-18.42,2.97-34.96,8.94-49.59,5.96-14.09,13.82-25.74,23.58-34.96,9.76-9.21,21.14-16.26,34.15-21.14,12.46-4.88,25.2-7.31,38.21-7.31,17.34,0,34.14,4.34,50.4,13.01,16.26,8.67,29.53,21.42,39.84,38.21,21.67-12.46,46.06-22.22,73.17-29.26,26.54-7.04,54.73-10.57,84.55-10.57,10.83,0,20.86.28,30.08.81,8.67,1.09,18.15,2.98,28.45,5.69,16.26,3.26,30.35,8.13,42.28,14.64,11.92,7.05,21.95,15.18,30.09,24.39,7.58,9.76,13.27,20.06,17.07,30.89,3.78,10.85,5.69,21.95,5.69,33.33,0,13.55-2.18,26.56-6.51,39.02-4.88,12.48-11.92,23.58-21.14,33.33-9.22,9.76-20.31,17.62-33.33,23.58-13.55,5.97-28.73,8.94-45.53,8.94-3.8,0-7.59-.27-11.39-.81-3.79-.54-7.87-1.35-12.19-2.44-4.34,0-8.42-.27-12.2-.81-3.8-.54-7.59-.82-11.38-.82-27.12,0-49.6,7.32-67.49,21.96-18.43,15.18-33.07,33.61-43.9,55.28-11.38,22.23-19.51,46.08-24.39,71.55-4.88,25.48-7.31,49.06-7.31,70.73v393.49Z"/>
    <path class="st0" d="M5980,2014.04c0,18.97-2.98,35.5-8.94,49.59-5.97,14.1-13.82,25.75-23.58,34.96-10.3,9.22-21.69,16.25-34.15,21.14-12.47,4.88-25.2,7.31-38.21,7.31-23.3,0-44.99-7.58-65.04-22.76-20.05-14.64-32.79-36.59-38.21-65.85-37.39,26.01-78.04,47.15-121.94,63.41-44.45,16.8-90.79,25.2-139.02,25.2-64.51,0-125.2-12.46-182.11-37.4-57.45-24.39-107.31-57.98-149.59-100.81-42.82-42.28-76.41-92.12-100.8-149.59-24.94-56.9-37.4-117.6-37.4-182.1,0-43.36,5.69-85.08,17.07-125.2,10.83-39.56,26.54-76.68,47.15-111.38,20.59-34.68,45.24-66.38,73.98-95.12,28.72-28.72,60.43-53.38,95.12-73.98,34.68-20.04,72.07-35.77,112.19-47.15,39.56-10.83,81.02-16.26,124.39-16.26,48.23,0,94.57,7.05,139.02,21.14,43.9,14.1,84.55,33.61,121.94,58.54,5.42-29.27,18.16-51.22,38.21-65.85,20.04-14.64,41.73-21.95,65.04-21.95,13.01,0,25.74,2.44,38.21,7.31,12.46,4.88,23.85,11.93,34.15,21.14,9.75,9.22,17.61,20.87,23.58,34.96,5.96,14.63,8.94,31.17,8.94,49.59v721.12ZM5510.91,1397.8c-35.23,0-68.57,6.78-100,20.32-31.98,13.56-59.62,31.99-82.92,55.28-23.86,23.86-42.55,51.49-56.09,82.92-14.11,31.44-21.14,65.04-21.14,100.81s7.03,69.38,21.14,100.81c13.54,31.43,32.23,58.81,56.09,82.1,23.3,23.86,50.94,42.56,82.92,56.1,31.43,14.11,64.77,21.14,100,21.14s69.37-7.03,100.81-21.14c31.42-13.54,59.07-32.24,82.92-56.1,23.29-23.29,41.72-50.67,55.28-82.1,13.54-31.43,20.32-65.04,20.32-100.81s-6.78-69.37-20.32-100.81c-13.55-31.43-31.98-59.07-55.28-82.92-23.86-23.29-51.51-41.72-82.92-55.28l-100.81-20.32Z"/>
  </g>
  <g>
    <path class="st0" d="M533.9,1105.61c-21.99,232.48-284.57,389.46-505.2,405.66,3.78-161.78-7.26-316.54,4.74-476.16,10.89-144.91,143.59-249.66,283.4-225.85,142.07,24.19,230.36,155.75,217.06,296.35Z"/>
    <path class="st0" d="M493.23,2113.51c-68.18,107.42-191.25,144.56-299.1,105.9-114.39-41-169.33-149.09-168.08-273.8l4.02-403.57c174.98,7.64,339.85,86.6,442.36,226.92,74,101.29,89.25,236.71,20.8,344.55Z"/>
    <g>
      <path class="st0" d="M1121.35,1253.34c-203.58,286.79-612.25,248.09-624.37,220.95-3.3-7.39-4.83-25.2,3.32-33.69,110.74-115.52,155.78-261.73,177.18-416.56,14.77-106.86,97.08-188.78,186.22-211.4,109-27.67,213.08,18.67,273.59,109.89,67.47,101.7,55.84,229.7-15.93,330.82Z"/>
      <path class="st0" d="M1179.74,1950.66c14.19,147.35-87.11,265.38-221.11,283.52-134.22,18.17-265.67-78.82-286-221.29-22.26-155.92-67.62-302.55-178.41-418.13-7.45-7.77-3.77-26.17-.35-31.76,3.81-6.21,15.89-7.02,28.63-8.3,209.36-21.18,410.79,43.52,557.94,192.37,53.62,54.24,91.33,120.86,99.3,203.6Z"/>
    </g>
  </g>
</svg>